<?xml version="1.0" encoding="UTF-8" standalone="no"?>
<svg
   version="1.1"
   viewBox="0 0 2037 229.53623"
   width="1273.125"
   height="434.625"
   id="svg147"
   sodipodi:docname="2kNuMB0HiEZi4k7gZHAIJ3NoBMe.svg"
   inkscape:version="1.3.2 (091e20e, 2023-11-25, custom)"
   xmlns:inkscape="http://www.inkscape.org/namespaces/inkscape"
   xmlns:sodipodi="http://sodipodi.sourceforge.net/DTD/sodipodi-0.dtd"
   xmlns="http://www.w3.org/2000/svg"
   xmlns:svg="http://www.w3.org/2000/svg">
  <defs
     id="defs147" />
  <sodipodi:namedview
     id="namedview147"
     pagecolor="#ffffff"
     bordercolor="#666666"
     borderopacity="1.0"
     inkscape:showpageshadow="2"
     inkscape:pageopacity="0.0"
     inkscape:pagecheckerboard="0"
     inkscape:deskcolor="#d1d1d1"
     showgrid="false"
     inkscape:zoom="0.74648438"
     inkscape:cx="-111.85767"
     inkscape:cy="615.55207"
     inkscape:window-width="3840"
     inkscape:window-height="2107"
     inkscape:window-x="-8"
     inkscape:window-y="-8"
     inkscape:window-maximized="1"
     inkscape:current-layer="svg147" />
  <path
     d="m 1522,-69.96875 h 28 l 3,2 h 441 v 58 l 1,264 -1,1 -14,-1 -39,-5 -23,-3 -36,-12 -37,-13 -29,-10 -46,-16 -43,-15 -40,-14 -19,-5 -26,-10 -35,-13 -44,-15 -19,-6 -5,-4 -15,-5 -23,-1 -2,-4 v -29 l -38,-1 -4,-2 -5,-7 -1,-4 v -23 l 5,-6 3,-1 46,-1 6,-2 6,-5 1,-3 2,-44 h 15 l 1,1 v 51 l 9,-1 1,-50 1,-1 h 377 l 6,3 20,20 3,4 1,4 v 189 l -1,10 -6,8 -12,12 -3,5 -1,4 25,5 26,4 5,-2 1,-2 v -299 h -54 l -5,2 -2,4 -1,25 -114,1 h -132 l -134,-1 -2,-9 h -7 l -1,8 -1,1 h -15 v -40 z m 110,54 -1,1 v 7 l 3,3 6,-1 2,-3 -1,-5 -2,-2 z m 79,4 -9,2 -7,6 -2,3 -1,9 v 31 l 1,72 3,9 11,14 4,4 33,11 30,11 45,16 28,11 14,6 41,15 18,6 8,1 9,-3 3,-4 2,-13 v -185 l -3,-6 -13,-12 -7,-4 z m -246,52 -5,5 v 6 l 5,6 6,1 6,-4 1,-2 v -8 l -4,-4 z"
     fill="#FEFEFE"
     id="path1"
     style="fill:#000000;fill-opacity:1" />
  <path
     d="m 1354,-123.96875 h 25 l 2,4 4,2 1,1 1,9 v 12 l 4,6 10,9 11,8 -2,2 -103,1 -8,7 -7,7 -8,7 -16,16 -8,7 -14,14 -8,7 -13,13 -4,1 H 930 l -4,-10 -7,-8 -5,-2 H 745 l -10,5 -6,8 -2,7 H 538 l -66,-33 -29,-1 H 143 l -1,-1 v -5 l 63,-1 9,-1 3,-2 1,-3 v -16 l -2,-5 -73,-1 -1,-1 v -19 l 1,-16 5,-3 17,-1 471,1 1,15 -3,8 -2,3 -1,5 v 26 l 3,8 4,4 4,1 h 325 l 8,-1 2,-4 1,-4 1,-59 1,-4 2,-1 h 147 l 58,1 v 12 l 4,4 11,5 4,1 18,1 h 12 l 13,-2 15,-7 72,-1 5,-3 8,-11 2,-5 -1,-13 1,-3 z m 1,3 -2,3 1,6 h 8 l 1,-1 v -7 l -1,-1 z m -1209,24 v 9 l 1,3 h 8 l 2,-3 -1,-7 -2,-2 z m 841,0 -3,3 v 9 l 2,2 h 9 l 2,-2 v -10 l -5,-2 z m -366,1 -3,3 v 7 l 4,3 h 7 l 2,-2 v -9 l -2,-2 z m 735,2 -2,2 v 5 l 2,2 h 6 l 1,-5 -2,-4 z m -1111,3 -8,2 -3,3 -1,3 v 14 l 3,5 4,2 53,2 -7,6 -1,2 v 13 l 3,5 6,3 h 83 l 6,-4 1,-2 v -18 l -5,-4 -2,-2 h 55 l 6,-6 1,-3 v -10 l -2,-7 -3,-3 -4,-1 h -78 l -8,2 -4,6 v 13 l 3,6 5,1 -1,2 h -22 l 5,-5 3,-4 v -12 l -3,-6 -4,-2 -32,-1 z m 215,0 -9,2 -4,5 -1,4 v 9 l 3,6 5,3 h 2 v 2 l -28,-1 -25,1 -8,3 -2,3 v 14 l 3,7 5,2 6,1 h 73 l 8,-3 5,-5 v -12 l -3,-6 -4,-3 -2,-1 5,-1 h 36 l 16,-2 5,-5 1,-2 v -9 l -3,-8 -4,-3 -3,-1 z m 645,16 v 78 l 2,2 h 31 l 1,-1 v -78 l -1,-1 z m -87,17 -6,4 -2,4 1,8 4,5 5,2 6,-1 5,-4 2,-4 -1,-8 -4,-5 -3,-1 z"
     fill="#FEFEFE"
     id="path2"
     style="fill:#000000;fill-opacity:1" />
  <path
     d="m 1309,-64.96875 h 204 l 1,1 v 73 l -1,1 -19,1 h -45 l -29,-1 h -78 v 58 h -211 l -1,-1 -1,-12 -8,-2 -22,-22 -5,-3 -37,-1 -10,-10 v -1 l 171,-1 4,2 -3,2 h -5 l -3,2 v 41 h 16 l 1,-19 v -21 l -5,-1 v -5 l 13,-11 21,-21 8,-7 23,-23 8,-7 8,-8 z m 163,8 -5,3 -2,4 v 6 l 4,6 5,3 7,-1 5,-4 2,-5 -1,-7 -3,-4 -3,-1 z m -44,40 -1,2 v 18 l 2,4 h 76 l 2,-4 v -16 l -2,-4 z m -279,36 -4,3 v 40 l 4,1 h 14 l 1,-2 1,-15 v -23 l -5,-4 z m 31,0 -3,3 v 38 l 1,2 3,1 h 13 l 2,-2 1,-15 v -24 l -4,-3 z m 74,-1 -11,1 -1,1 v 39 l 1,4 h 17 l 1,-2 v -40 l -5,-3 z m 29,0 -7,1 -2,2 -1,4 1,36 3,2 h 13 l 3,-2 v -40 l -7,-3 z m 40,24 -6,5 -1,6 4,6 4,2 6,-1 4,-5 1,-5 -3,-6 -3,-2 z"
     fill="#FEFEFE"
     id="path3"
     style="fill:#000000;fill-opacity:1" />
  <path
     d="m 143,-19.96875 h 322 l 9,3 41,21 23,11 190,1 v 34 h -11 l -4,-3 -2,-7 -134,1 -5,10 -7,1 h -24 l -5,-10 -9,-11 -384,-1 -1,-1 v -48 z m 29,17 -6,4 -2,6 2,7 5,4 h 7 l 6,-5 1,-2 v -7 l -3,-5 -4,-2 z m 370,29 -3,3 1,7 1,3 6,1 5,-2 2,-7 -1,-4 -2,-1 z"
     fill="#FEFEFE"
     id="path4"
     style="fill:#000000;fill-opacity:1" />
  <path
     d="m 1133,88.03125 5,3 15,14 8,7 2,1 -2,16 3,17 4,12 9,15 12,17 9,11 11,13 5,2 h 86 l 11,-1 19,-10 8,-7 4,-9 2,-10 v -28 l -2,-10 -4,-10 -7,-9 -10,-7 -9,-4 -4,-1 -18,-1 h -128 l -7,-6 -2,-5 h 306 l 36,1 v 7 l -1,1 -25,1 -5,2 -5,7 -3,10 v 9 l 4,12 10,17 8,15 11,16 21,31 15,22 9,11 10,10 4,3 -1,8 -6,23 -5,12 -8,11 -11,11 -12,9 -14,10 -15,10 -14,9 -4,-2 -7,-10 -11,-18 -13,-20 -12,-19 -13,-20 -13,-21 -13,-20 -5,-6 -6,-3 -7,-1 h -154 l -23,11 -21,10 -4,2 -13,1 h -40 l -4,-2 3,-4 1,-14 1,-2 h 10 l 2,8 h 15 l 1,-7 z m 238,21 -6,3 -2,2 -1,9 7,27 1,17 -2,19 -3,8 -8,11 1,8 28,42 10,16 15,23 14,22 22,34 12,18 4,1 14,-9 17,-12 16,-13 8,-7 9,-12 7,-14 1,-3 v -7 l -9,-16 -10,-15 -14,-20 -10,-15 -12,-17 -28,-42 -8,-16 -4,-12 v -8 l 3,-11 v -7 l -7,-4 z m -218,111 -5,3 -4,5 v 6 l 4,6 3,2 h 7 l 5,-3 3,-5 -1,-8 -6,-5 z"
     fill="#FEFEFE"
     id="path5"
     style="fill:#000000;fill-opacity:1" />
  <path
     d="m 1372,114.03125 h 63 l 3,2 -1,8 -2,7 v 10 l 5,15 9,16 8,12 13,19 8,12 14,20 34,51 4,8 -1,7 -6,11 -7,10 -12,12 -19,14 -20,14 -4,1 -14,-22 -11,-17 -16,-25 -10,-15 -12,-19 -13,-20 -16,-24 -7,-12 1,-4 7,-10 3,-8 2,-13 v -20 l -3,-14 -5,-19 1,-5 z m 108,118 -5,3 -2,3 v 8 l 6,5 6,-1 5,-5 v -6 l -5,-6 z"
     fill="#FEFEFE"
     id="path6"
     style="fill:#000000;fill-opacity:1" />
  <path
     d="m 125,107.03125 6,2 9,1 22,1 3,9 h 27 l 4,-2 1,-9 h 31 l 1,1 2,10 h 31 l 2,-11 h 29 l 3,11 h 28 l 4,-4 1,-7 h 29 l 2,9 1,2 h 28 l 4,-1 1,-10 h 27 l 3,11 h 28 l 3,-1 2,-10 h 29 l 3,10 1,1 h 31 l 1,-11 h 23 l 2,11 3,4 3,1 12,1 1,1 v 14 l -1,1 -11,2 -2,1 -1,5 -1,21 h -27 l -1,-1 -1,-25 -1,-1 -8,-1 h -20 l -3,1 -2,10 -1,17 h -29 l -1,-25 -1,-2 -6,-1 h -19 l -7,2 -1,7 v 19 h -28 l -1,-23 -2,-4 -4,-1 h -20 l -7,2 -1,4 -1,22 h -29 l -1,-23 -1,-3 -5,-2 h -22 l -5,1 -1,26 -1,1 h -28 l -1,-1 -1,-21 -2,-5 -5,-1 h -20 l -6,1 -1,4 -1,23 h -28 l -1,-1 -2,-25 -1,-1 -7,-1 h -18 l -6,1 -1,4 -1,23 h -13 l -6,-7 -11,-17 -7,-11 -1,-3 z m 86,17 -3,3 -1,6 2,3 9,1 2,-4 -1,-6 -5,-3 z m 323,0 -5,3 v 7 l 2,3 h 8 l 2,-3 v -6 l -3,-4 z m -389,1 -2,2 v 7 l 3,3 4,1 5,-3 1,-6 -3,-4 z m 130,0 -3,3 v 7 l 3,2 h 7 l 2,-3 v -6 l -3,-3 z m 65,0 -4,3 v 6 l 3,3 h 7 l 2,-2 v -8 l -3,-2 z m 63,0 -3,2 v 6 l 3,4 h 7 l 2,-2 v -8 l -3,-2 z m 64,0 -2,2 v 8 l 2,2 h 8 l 2,-3 v -6 l -3,-3 z"
     fill="#FEFEFE"
     id="path7"
     style="fill:#000000;fill-opacity:1" />
  <path
     d="m 570,119.03125 h 265 l 8,16 9,16 13,24 12,22 13,25 10,19 v 9 l -3,32 -1,1 h -20 l -5,-5 -14,-22 -15,-24 -14,-22 -15,-24 -10,-14 -15,-10 -10,-4 -9,-1 H 571 l -2,-2 v -34 z"
     fill="#FEFEFE"
     id="path8"
     style="fill:#000000;fill-opacity:1" />
  <path
     d="m 942,271.03125 h 160 l 2,28 4,17 8,25 1,12 -4,7 -10,11 -5,5 -4,2 -145,1 h -31 l -15,-1 -6,-3 -6,-12 -18,-57 v -3 h 32 l 16,-1 7,-5 8,-20 4,-5 z m 13,15 -2,1 v 10 l 3,2 h 6 l 3,-2 v -8 l -3,-3 z m 124,0 -3,2 -1,6 4,5 h 6 l 3,-2 v -8 l -3,-3 z m -163,47 -8,2 -6,5 -3,7 v 8 l 5,10 6,4 5,1 h 176 l 9,-2 7,-8 2,-7 -1,-9 -4,-6 -6,-4 -3,-1 z"
     fill="#FEFEFE"
     id="path9"
     style="fill:#000000;fill-opacity:1" />
  <path
     d="m 735,82.03125 h 143 l 7,10 15,26 11,18 16,27 9,15 17,29 10,16 15,26 2,3 4,1 103,1 4,2 -1,3 -6,1 H 979 l -6,-3 -10,-9 -5,-2 h -10 l -4,1 -5,10 -4,3 -7,1 -3,5 -7,19 -3,5 h -14 l -1,-3 4,-37 v -10 l -6,-13 v -5 l 3,-3 -1,-8 -16,-32 -9,-2 -2,-3 v -6 l 2,-4 -10,-21 -10,-17 -5,-1 -4,-2 -6,-8 -65,-1 H 572 l -3,-2 1,-5 154,-1 1,-3 2,-15 5,-5 z m 1,4 -5,5 -1,7 2,5 3,3 6,1 8,-4 1,-2 v -9 l -6,-6 z m 126,3 -5,2 -3,3 2,5 4,3 6,-1 3,-5 -2,-6 z m 78,137 -5,3 -1,5 6,6 4,-1 4,-4 -1,-6 -3,-3 z m -26,21 -4,3 -1,4 2,4 5,2 5,-1 2,-3 v -5 l -5,-4 z"
     fill="#FEFEFE"
     id="path10"
     style="fill:#000000;fill-opacity:1" />
  <path
     d="m 307,217.03125 h 47 l 4,16 5,8 5,4 10,4 29,1 v 33 l -1,91 -5,19 -6,15 -6,11 -8,10 -8,8 -9,6 -7,2 h -46 l -4,-1 -1,-3 v -23 l 1,-5 4,-1 h 44 l 2,-25 1,-137 h -36 l -14,-1 -1,-1 z m 29,8 -5,4 -1,7 5,6 h 9 l 4,-4 v -8 l -3,-5 z"
     fill="#FEFEFE"
     id="path11"
     style="fill:#000000;fill-opacity:1" />
  <path
     d="m 1996,-67.96875 h 14 l 9,1 8,5 5,6 4,15 1,8 v 17 l -3,3 -4,1 1,5 4,4 v 9 l -5,37 -2,5 -4,1 v 7 l 5,4 v 61 l -7,2 2,5 6,4 1,30 v 17 l -5,3 1,5 6,5 2,28 v 13 l -3,8 -8,8 -10,4 -11,2 h -6 l -1,-1 -1,-60 v -221 z"
     fill="#FEFEFE"
     id="path12"
     style="fill:#000000;fill-opacity:1" />
  <path
     d="m 1042,20.03125 7,6 v 2 h 2 v 3 l 3,1 v 1 h 38 l 11,9 13,13 8,5 2,11 1,15 v 34 l -17,1 h -94 l -4,-4 -4,-10 -3,-5 v -2 l -43,-1 -9,-1 -5,-5 -9,-11 1,-5 9,-10 6,-10 1,-15 4,-5 2,-1 47,-1 9,-2 h 8 l 6,2 v 6 l -65,1 -6,1 -1,8 -1,14 h 48 l 1,5 -34,-1 v 16 h 29 l 1,-4 5,1 2,7 13,2 v -9 l 5,1 2,1 27,1 1,-16 h -21 l -13,1 -1,-1 1,-13 5,-2 h 4 l 1,7 5,1 h 6 v -5 l 11,-1 h 12 l 1,-12 h -24 l 1,-5 4,-5 -4,-6 -5,-6 z m 53,27 -1,2 v 7 l 1,1 h 9 l 2,-2 v -5 l -4,-3 z"
     fill="#FEFEFE"
     id="path13"
     style="fill:#000000;fill-opacity:1" />
  <path
     d="m 1545,122.03125 7,1 60,20 38,14 18,7 -2,2 -17,3 -20,6 -21,9 -16,9 -9,7 -12,11 -8,10 -10,18 -5,16 -1,9 1,4 -8,-6 -12,-15 -14,-20 -8,-12 -17,-25 -6,-9 v -2 l 4,2 8,3 h 17 l 9,-6 14,-14 7,-12 2,-6 z"
     fill="#FEFEFE"
     id="path14"
     style="fill:#000000;fill-opacity:1" />
  <path
     d="m 765,13.03125 h 129 l 5,7 3,1 22,1 v 42 l -3,1 H 735 l -1,-1 -1,-17 1,-25 23,-1 5,-4 z m -25,32 -2,4 1,7 3,2 h 6 l 2,-2 v -10 l -1,-1 z m 168,0 -3,4 1,6 2,2 h 10 l 1,-6 -2,-5 -1,-1 z"
     fill="#FEFEFE"
     id="path15"
     style="fill:#000000;fill-opacity:1" />
  <path
     d="m 1933,-54.96875 h 51 l 1,1 v 291 l -1,1 h -10 l -36,-6 1,-5 14,-14 4,-5 1,-3 1,-200 -3,-7 -9,-10 -15,-14 -1,-2 v -25 z m 33,42 -3,2 1,6 1,2 h 7 l 3,-4 -2,-5 -1,-1 z m -1,230 -2,2 1,7 3,2 6,-1 2,-3 -1,-6 -1,-1 z"
     fill="#FEFEFE"
     id="path16"
     style="fill:#000000;fill-opacity:1" />
  <path
     d="m 371,-115.96875 h 856 l -1,8 -246,1 -3,2 -82,1 H 434 l -63,-1 z"
     fill="#FEFEFE"
     id="path17"
     style="fill:#000000;fill-opacity:1" />
  <path
     d="m 387,-134.96875 h 51 l 22,1 v 9 h 25 l 1,-8 h 22 l 2,7 25,1 1,-10 h 55 l 17,1 1,8 h 24 l 2,-7 h 23 l 1,8 24,-1 2,-7 h 73 l 1,8 22,-1 2,-7 h 23 l 1,2 v 6 h 25 l 1,-9 14,-1 h 34 l 24,1 v 9 l 25,-1 1,-7 h 24 l 2,7 h 21 l 3,-7 h 72 l 2,5 v 3 h 24 l 1,-8 h 23 l 2,4 v 4 l 22,-1 2,-7 h 73 l 1,1 v 7 l 23,-1 1,-7 4,-2 1,3 -3,11 H 372 v -4 l 13,-1 1,-8 z"
     fill="#FEFEFE"
     id="path18"
     style="fill:#000000;fill-opacity:1" />
  <path
     d="m 1710,-7.96875 h 205 l 7,3 15,14 1,2 v 185 l -1,8 -5,6 -5,1 -15,-4 -41,-14 -1,-2 h 14 l 15,-4 11,-6 5,-5 h 2 l 2,-4 6,-8 5,-13 1,-5 1,-106 1,-5 -7,2 h -38 l -3,-1 -2,-6 -181,-1 -1,6 h -3 l -1,-3 v -20 l 1,-3 h 2 l 1,3 v 16 h 2 v -11 l 181,-1 2,-16 -186,-1 2,-4 3,-2 z"
     fill="#FEFEFE"
     id="path19"
     style="fill:#000000;fill-opacity:1" />
  <path
     d="m 125,80.03125 h 411 l 6,3 3,4 v 18 h -22 l -1,-1 v -12 h -36 v 13 h -29 l -1,-13 h -33 l -1,1 -1,12 h -27 l -1,-13 h -35 v 13 h -29 v -13 h -32 l -3,1 -1,12 h -29 v -13 h -36 v 13 h -30 l -1,-1 -1,-12 h -34 l -1,14 h -13 l -17,-1 -3,-2 -3,-7 z"
     fill="#FEFEFE"
     id="path20"
     style="fill:#000000;fill-opacity:1" />
  <path
     d="m 1447,70.03125 6,2 4,5 2,1 36,1 v 14 l -1,2 h -346 l -11,-9 -4,-5 -1,-7 297,-1 18,-1 z"
     fill="#FEFEFE"
     id="path21"
     style="fill:#000000;fill-opacity:1" />
  <path
     d="m 995,124.03125 h 30 l 101,1 1,1 v 115 h -6 l -2,-5 v -3 l -12,-1 -9,1 v 15 l -1,6 -4,-1 -8,-4 -11,-21 -3,-7 v -3 h -52 l -5,-5 -16,-30 -13,-23 -8,-16 -1,-6 7,-8 7,-5 z m 8,6 -9,3 -8,7 -2,5 16,30 12,22 8,14 4,2 h 37 l 29,-1 6,-4 -3,-9 -15,-29 -20,-38 -3,-2 z m 104,6 -3,3 v 6 l 5,2 5,-3 1,-5 -4,-3 z m 0,83 -4,3 1,5 3,3 9,-3 -2,-6 -3,-2 z"
     fill="#FEFEFE"
     id="path22"
     style="fill:#000000;fill-opacity:1" />
  <path
     d="m 580,43.03125 h 127 l 3,5 1,4 16,1 1,1 1,17 3,1 h 197 v -19 h 20 l 1,2 -7,11 -8,10 -199,1 -6,2 -5,4 -2,5 -2,12 -2,2 -7,1 -4,-1 H 569 l -8,-7 -7,-7 -8,-7 -6,-6 v -19 l 8,-1 26,-1 z m 84,7 -79,1 -2,3 v 29 l 3,3 h 116 l 1,-1 1,-9 v -22 l -1,-3 -6,-1 z m -94,41 -1,3 v 7 l 7,-1 1,-5 -1,-3 z m 142,0 -2,1 v 9 h 6 l 3,-3 -2,-6 z"
     fill="#FEFEFE"
     id="path23"
     style="fill:#000000;fill-opacity:1" />
  <path
     d="m 2,-24.96875 h 121 l 1,2 v 55 l -10,3 v 7 H 1 l 1,-5 5,-3 -1,-3 -5,-3 -1,-5 5,-6 5,-4 1,-7 -5,-5 -5,-4 v -7 l 6,-7 -5,-4 -1,-3 z m 34,11 -5,2 -1,1 v 6 l 3,3 6,2 8,-1 3,-6 -1,-5 -5,-2 z m 30,0 -3,2 v 9 l 2,2 8,1 7,-2 2,-5 -1,-5 -4,-2 z m 35,0 -6,2 v 7 l 4,4 6,1 6,-2 3,-4 v -5 l -2,-2 -4,-1 z m -67,33 -3,1 -1,2 v 6 l 4,4 8,1 6,-2 2,-3 -1,-7 -3,-2 z m 31,0 -2,1 v 10 l 2,2 4,1 h 7 l 5,-3 1,-7 -4,-4 z m 40,-1 -9,2 -1,1 v 7 l 3,4 3,1 h 7 l 5,-2 1,-1 v -6 l -4,-5 z"
     fill="#FEFEFE"
     id="path24"
     style="fill:#000000;fill-opacity:1" />
  <path
     d="m 725,-89.96875 h 127 l 6,3 7,10 109,1 1,5 -1,1 -80,1 -9,6 -4,1 -38,1 -8,4 -12,1 h -26 l -9,-7 h -44 l -10,6 -3,1 h -16 l -9,-6 -12,-10 -6,-3 h -18 l -7,2 -4,2 -5,-1 v -3 l 27,-4 7,-1 5,-8 2,-1 z"
     fill="#FEFEFE"
     id="path25"
     style="fill:#000000;fill-opacity:1" />
  <path
     d="m 886,82.03125 h 47 l 5,5 8,10 5,4 4,1 43,1 5,2 -1,3 -47,1 -6,3 -5,8 v 6 l 13,25 6,10 v 2 l -12,6 -4,7 1,7 4,5 7,2 h 14 l 5,1 11,21 10,16 7,6 8,1 h 58 l 5,8 2,5 -9,1 h -77 l -1,-2 7,-5 1,-7 -5,-5 -6,-1 -4,2 -1,2 v 8 l 1,3 6,3 v 2 l -7,-2 -10,-15 -15,-25 -14,-24 -8,-13 -13,-22 -10,-17 -13,-22 -15,-25 z m 20,7 -5,5 -1,6 4,8 2,1 h 8 l 6,-5 1,-7 -2,-5 -4,-3 z"
     fill="#FEFEFE"
     id="path26"
     style="fill:#000000;fill-opacity:1" />
  <path
     d="m 1348,16.03125 h 166 l -1,4 -5,3 -45,1 -7,1 -8,7 -2,6 v 24 l -2,5 -3,1 h -92 l -1,-1 z m 24,2 -2,6 -4,4 2,4 10,5 7,3 4,8 6,3 6,-2 4,-4 1,-5 -3,-6 -3,-2 h -9 l -5,4 -1,-7 -1,-6 -10,-5 z m -19,1 -1,6 1,2 h 5 l 1,-1 v -6 z m 64,3 v 4 l 1,1 h 6 l 1,-4 -1,-1 z m 6,26 v 5 l 5,1 2,-4 -1,-2 z m -70,6 -1,1 v 5 l 3,2 4,-1 1,-5 -3,-2 z m 83,0 -1,1 v 6 l 5,1 1,-5 -2,-3 z m -50,1 -10,5 -1,5 4,1 10,-6 1,-5 z"
     fill="#FEFEFE"
     id="path27"
     style="fill:#000000;fill-opacity:1" />
  <path
     d="m 914,338.03125 h 181 l 6,4 3,6 v 8 l -4,6 -6,3 H 914 l -6,-4 -3,-4 -1,-8 2,-5 5,-5 z m 1,5 -4,2 -1,2 v 9 l 4,4 h 10 l 4,-5 -1,-9 -4,-3 z m 168,0 -5,3 -1,7 3,6 2,1 h 10 l 3,-4 v -9 l -4,-4 z"
     fill="#FEFEFE"
     id="path28"
     style="fill:#000000;fill-opacity:1" />
  <path
     d="m 276,174.03125 h 125 l 33,1 1,15 v 12 l -5,5 -9,6 -3,3 -6,-10 -7,-9 -7,-5 -6,-2 h -14 l -9,4 -6,5 -6,10 -2,5 h -49 l -27,-9 -3,-4 z m 145,12 -4,3 1,7 5,2 4,-3 v -7 z m -133,1 -3,3 1,6 7,1 4,-3 v -5 l -3,-2 z"
     fill="#FEFEFE"
     id="path29"
     style="fill:#000000;fill-opacity:1" />
  <path
     d="m 254,35.03125 h 72 l 1,41 -1,1 H 135 l -2,-2 -3,-7 -6,-9 v -1 h 109 l 8,-3 7,-9 z m -119,28 1,10 h 78 l 1,-3 v -7 z"
     fill="#FEFEFE"
     id="path30"
     style="fill:#000000;fill-opacity:1" />
  <path
     d="m 1008,134.03125 h 41 l 5,2 9,16 17,33 9,17 1,5 -66,1 -5,-8 -16,-30 -12,-22 v -5 l 8,-7 z m 29,26 -5,2 -4,5 v 6 l 5,6 6,1 6,-4 2,-2 v -6 l -4,-6 z"
     fill="#FEFEFE"
     id="path31"
     style="fill:#000000;fill-opacity:1" />
  <path
     d="m 1317,-204.96875 h 36 l 5,3 12,13 9,9 9,11 1,2 v 23 l -2,7 -5,-1 -3,-8 -5,-14 v -2 l -20,2 v 5 l -35,1 -1,16 h -66 l -1,-19 4,-4 4,-1 h 7 l 2,3 7,-1 26,-7 12,-5 8,-6 -1,-7 -8,-11 -1,-6 1,-2 z m 38,16 -7,3 -3,3 -1,8 3,5 5,5 h 9 l 5,-3 3,-6 v -6 l -4,-6 -2,-2 z"
     fill="#FEFEFE"
     id="path32"
     style="fill:#000000;fill-opacity:1" />
  <path
     d="m 98,-121.96875 h 173 v 17 l -114,1 -15,2 -3,3 -2,16 h -22 l -3,-3 -28,-2 -1,-1 v -13 l 3,-9 7,-8 z m 37,4 -2,2 1,6 2,2 7,-1 2,-2 -1,-5 -3,-2 z m 115,0 -2,1 v 7 l 1,2 6,1 3,-1 1,-7 -1,-3 z"
     fill="#FEFEFE"
     id="path33"
     style="fill:#000000;fill-opacity:1" />
  <path
     d="m 656,-99.96875 h 318 l 1,1 v 12 l -1,7 h -99 l -8,-1 -7,-9 -4,-2 H 693 l -5,4 -4,7 -10,1 h -33 v -18 l 1,-1 z m -1,6 -1,1 v 6 l 1,1 h 8 v -7 l -1,-1 z m 301,0 -1,1 v 5 l 2,2 h 6 l 2,-3 -1,-5 z"
     fill="#FEFEFE"
     id="path34"
     style="fill:#000000;fill-opacity:1" />
  <path
     d="m 666,-69.96875 h 22 l 8,5 13,10 7,3 h 13 l 9,-2 6,-4 h 45 l 5,5 h 41 l 5,-3 4,-1 35,-1 9,-2 8,-6 3,-1 h 75 l 1,1 v 17 l -1,1 H 658 l -2,-1 v -13 l 4,-5 z"
     fill="#FEFEFE"
     id="path35"
     style="fill:#000000;fill-opacity:1" />
  <path
     d="m 1393,-115.96875 35,2 h 14 l 7,-1 5,3 6,10 12,16 5,6 v 2 l 6,2 5,-1 3,-3 1,-5 -7,-12 -9,-12 -2,-4 h 5 l 8,9 13,19 6,7 6,2 6,-2 v -9 l -8,-14 -8,-11 v -2 l 6,1 8,6 12,11 15,15 6,5 v 2 l -30,1 -7,2 h -92 l -8,-7 -14,-13 -5,-4 -1,-2 v -18 z m 30,29 -4,4 1,6 2,3 5,1 5,-2 2,-4 -1,-5 -3,-3 z"
     fill="#FEFEFE"
     id="path36"
     style="fill:#000000;fill-opacity:1" />
  <path
     d="m 644,-76.96875 h 5 l 2,3 v 30 h 322 l 2,1 -1,6 -4,3 -184,1 H 653 l -12,-1 -5,-6 -1,-7 v -17 l 2,-8 4,-4 z"
     fill="#FEFEFE"
     id="path37"
     style="fill:#000000;fill-opacity:1" />
  <path
     d="m 747,-6.96875 h 162 l 7,2 6,7 1,2 1,11 -1,1 -7,1 h -12 l -4,-2 -4,-6 H 765 l -3,1 -5,6 -3,1 h -19 l -2,-2 v -9 l 4,-7 7,-5 z"
     fill="#FEFEFE"
     id="path38"
     style="fill:#000000;fill-opacity:1" />
  <path
     d="m 306,-219.96875 h 9 l 4,9 11,29 7,16 6,6 v 2 h 2 l 6,7 8,7 2,3 h -66 l -1,-1 v -76 l 1,-1 z"
     fill="#FEFEFE"
     id="path39"
     style="fill:#000000;fill-opacity:1" />
  <path
     d="m 438,175.03125 h 125 l 1,4 -1,12 -9,1 v 8 l -1,1 h -74 v -9 h -24 v 9 l -17,1 z"
     fill="#FEFEFE"
     id="path40"
     style="fill:#000000;fill-opacity:1" />
  <path
     d="m 1551,279.03125 4,2 8,9 3,5 -1,8 -4,15 -8,17 -8,10 -7,8 -14,11 -12,9 -21,14 -21,12 -5,-1 -4,-7 v -9 l 4,-4 20,-12 17,-12 16,-12 13,-12 6,-9 4,-8 8,-26 z"
     fill="#FEFEFE"
     id="path41"
     style="fill:#000000;fill-opacity:1" />
  <path
     d="m 589,56.03125 h 110 v 25 l -4,1 H 589 l -1,-1 v -23 z"
     fill="#FEFEFE"
     id="path42"
     style="fill:#000000;fill-opacity:1" />
  <path
     d="m 254,174.03125 h 17 l 1,1 v 26 l -1,1 h -9 l -1,-1 -1,-8 -23,-1 v 9 l -3,1 h -70 l -2,-1 v -9 h -9 l -1,-1 v -16 z"
     fill="#FEFEFE"
     id="path43"
     style="fill:#000000;fill-opacity:1" />
  <path
     d="m 1107,271.03125 h 6 l 3,2 1,7 1,18 4,15 11,34 -1,6 -8,11 -11,13 -11,12 -7,1 H 908 l -10,-3 -9,-7 -7,-14 -13,-42 -4,-12 v -9 l 3,1 4,11 16,52 4,8 1,3 10,4 12,1 h 170 l 13,-1 6,-5 9,-11 8,-11 1,-7 -6,-21 -6,-20 -3,-15 z"
     fill="#FEFEFE"
     id="path44"
     style="fill:#000000;fill-opacity:1" />
  <path
     d="m 1242,-133.96875 h 128 l 8,1 v 2 l -3,1 -23,1 -5,1 -2,15 -1,1 h -35 l -1,4 -77,1 -1,-2 5,-22 1,-2 z m 13,4 -4,2 -2,4 v 8 l 4,4 h 9 l 5,-4 v -7 l -3,-5 z"
     fill="#FEFEFE"
     id="path45"
     style="fill:#000000;fill-opacity:1" />
  <path
     d="m 117,35.03125 h 132 l -1,5 -9,12 -5,3 H 121 l -2,-5 -2,-9 z"
     fill="#FEFEFE"
     id="path46"
     style="fill:#000000;fill-opacity:1" />
  <path
     d="m 504,39.03125 h 11 l 8,4 2,4 1,15 -4,6 -4,3 -4,1 h -73 v -32 z m 4,4 -6,4 -3,6 1,8 5,6 4,2 6,-1 6,-4 2,-6 -1,-9 -4,-5 -2,-1 z"
     fill="#FEFEFE"
     id="path47"
     style="fill:#000000;fill-opacity:1" />
  <path
     d="m 1313,-107.96875 h 33 l -1,5 -8,10 -2,1 -71,1 -9,3 -9,5 -6,1 h -26 l -12,-2 -9,-5 -1,-2 v -10 l 119,-2 z"
     fill="#FEFEFE"
     id="path48"
     style="fill:#000000;fill-opacity:1" />
  <path
     d="m 303,-136.96875 h 65 l 1,1 v 11 l -2,20 -54,1 -22,-1 v -15 l 1,-15 1,-1 z m 6,5 -5,3 -3,7 2,8 4,4 8,1 7,-3 4,-5 -1,-9 -5,-5 -2,-1 z m 43,4 -3,3 1,7 3,2 h 6 l 2,-1 v -10 l -1,-1 z"
     fill="#FEFEFE"
     id="path49"
     style="fill:#000000;fill-opacity:1" />
  <path
     d="m 1032,15.03125 h 5 l -5,4 -9,7 -13,4 -45,1 -8,2 -6,7 -1,8 -3,2 h -18 v -34 z"
     fill="#FEFEFE"
     id="path50"
     style="fill:#000000;fill-opacity:1" />
  <path
     d="m 1269,112.03125 h 29 l 1,1 v 43 l -2,10 -5,12 -8,14 -7,9 -5,1 v -8 l 4,-13 v -41 l -3,-16 -4,-10 z"
     fill="#FEFEFE"
     id="path51"
     style="fill:#000000;fill-opacity:1" />
  <path
     d="m 1110,-70.96875 h 24 l 1,70 -6,1 h -18 l -1,-1 z"
     fill="#FEFEFE"
     id="path52"
     style="fill:#000000;fill-opacity:1" />
  <path
     d="m 380,193.03125 h 7 l 10,3 8,6 9,15 5,5 v 14 l -2,5 -6,4 -4,1 h -29 l -9,-4 -7,-8 -3,-9 v -11 l 5,-10 8,-8 z m 3,9 -8,3 -5,5 -1,3 v 12 l 3,6 5,4 6,2 8,-1 8,-5 4,-5 v -11 l -3,-6 -7,-6 z"
     fill="#FEFEFE"
     id="path53"
     style="fill:#000000;fill-opacity:1" />
  <path
     d="m 957,112.03125 h 49 l 2,3 -1,5 -17,1 -6,3 -10,9 -3,4 1,7 9,17 1,4 h -11 l -4,-4 -18,-35 -1,-4 5,-8 z"
     fill="#FEFEFE"
     id="path54"
     style="fill:#000000;fill-opacity:1" />
  <path
     d="m 1431,-12.96875 h 71 l 1,1 v 14 l -1,1 h -71 l -1,-1 v -14 z"
     fill="#FEFEFE"
     id="path55"
     style="fill:#000000;fill-opacity:1" />
  <path
     d="m 949,248.03125 9,1 8,6 9,7 10,1 h 98 l 1,4 -1,1 H 942 l -6,3 -6,12 -4,9 -3,1 -2,-1 1,-9 6,-16 3,-4 10,-1 2,-6 z"
     fill="#FEFEFE"
     id="path56"
     style="fill:#000000;fill-opacity:1" />
  <path
     d="m 985,190.03125 h 11 l 6,9 11,21 4,1 h 47 l 4,2 3,8 h -63 l -6,-5 -9,-16 -10,-17 v -2 z"
     fill="#FEFEFE"
     id="path57"
     style="fill:#000000;fill-opacity:1" />
  <path
     d="m 1019,45.03125 h 15 v 5 l -2,1 -9,1 -1,1 -1,17 -4,1 -5,-2 -1,-1 v -7 h -48 v -13 l 1,-2 z"
     fill="#FEFEFE"
     id="path58"
     style="fill:#000000;fill-opacity:1" />
  <path
     d="m 470,-87.96875 h 42 l 26,1 4,5 1,4 v 8 l -4,4 -6,1 h -78 l -5,-6 v -9 l 3,-5 4,-2 z m 6,5 -19,1 -1,1 v 10 l 1,1 h 80 v -11 l -1,-1 -7,-1 z"
     fill="#FEFEFE"
     id="path59"
     style="fill:#000000;fill-opacity:1" />
  <path
     d="m 350,-86.96875 h 81 l 3,3 1,5 v 8 l -3,5 -2,1 h -82 l -4,-5 -1,-2 v -9 l 5,-5 z m 36,4 -36,1 -2,2 v 7 l 2,3 h 79 l 1,-1 v -11 z"
     fill="#FEFEFE"
     id="path60"
     style="fill:#000000;fill-opacity:1" />
  <path
     d="m 351,307.03125 h 1 l 1,12 v 32 l -1,35 -2,-1 -39,-1 -3,-2 v -4 l 39,-1 2,-2 1,-13 1,-4 -40,-1 -3,-4 v -2 l 2,-1 37,-1 3,-4 1,-15 -42,-1 -1,-5 5,-2 35,-1 2,-4 z"
     fill="#FEFEFE"
     id="path61"
     style="fill:#000000;fill-opacity:1" />
  <path
     d="m 142,-55.96875 h 71 l 1,1 1,16 -3,2 -13,1 h -55 l -2,-1 z m 12,5 -7,1 1,7 h 60 v -8 z"
     fill="#FEFEFE"
     id="path62"
     style="fill:#000000;fill-opacity:1" />
  <path
     d="m 402,-56.96875 h 81 l 5,5 2,6 v 7 l -9,6 -12,2 h -9 l -1,-2 h 4 v -2 l -5,1 -54,-1 -6,-3 -1,-1 v -14 z m 2,4 -2,3 v 8 l 2,3 h 54 l 26,-1 1,-6 -2,-6 -8,-1 z"
     fill="#FEFEFE"
     id="path63"
     style="fill:#000000;fill-opacity:1" />
  <path
     d="m 243,-86.96875 h 68 l 15,1 3,3 v 12 l -6,6 -23,1 -47,-1 -13,-1 -3,-4 -1,-7 2,-7 z m 5,4 -6,1 v 12 h 80 l 2,-2 1,-9 -2,-1 -33,-1 z"
     fill="#FEFEFE"
     id="path64"
     style="fill:#000000;fill-opacity:1" />
  <path
     d="m 300,-57.96875 h 18 l 61,1 2,4 -1,15 -5,3 h -81 l -5,-4 v -13 l 5,-5 z m -2,5 -4,2 v 10 l 5,2 h 60 l 16,-1 1,-1 v -11 l -4,-1 z"
     fill="#FEFEFE"
     id="path65"
     style="fill:#000000;fill-opacity:1" />
  <path
     d="m 1361,-156.96875 h 10 l 2,3 -1,5 -7,2 1,4 5,-1 3,-6 2,2 1,3 v 7 l -21,1 h -33 l -3,-3 1,-11 3,-2 13,1 18,1 4,-5 z m -34,8 -1,1 v 6 l 4,1 2,-4 v -4 z"
     fill="#FEFEFE"
     id="path66"
     style="fill:#000000;fill-opacity:1" />
  <path
     d="m 1302,-194.96875 4,1 6,8 3,5 -1,4 -14,7 -21,6 -4,1 h -7 l -1,-1 v -19 l 2,-3 7,-1 5,8 4,4 h 8 l 6,-3 1,-2 1,-14 z"
     fill="#FEFEFE"
     id="path67"
     style="fill:#000000;fill-opacity:1" />
  <path
     d="m 134,-26.96875 h 3 v 60 h -10 v -51 l 1,-8 z"
     fill="#FEFEFE"
     id="path68"
     style="fill:#000000;fill-opacity:1" />
  <path
     d="m 314,388.03125 h 31 l 1,5 -2,13 h -31 v -17 z"
     fill="#FEFEFE"
     id="path69"
     style="fill:#000000;fill-opacity:1" />
  <path
     d="m 169,148.03125 h 22 l 2,2 v 20 l -1,1 h -24 v -22 z"
     fill="#FEFEFE"
     id="path70"
     style="fill:#000000;fill-opacity:1" />
  <path
     d="m 300,148.03125 h 20 l 3,2 v 21 h -24 l -1,-1 v -21 z"
     fill="#FEFEFE"
     id="path71"
     style="fill:#000000;fill-opacity:1" />
  <path
     d="m 234,148.03125 h 20 l 3,1 1,2 v 19 l -1,1 h -24 v -22 z"
     fill="#FEFEFE"
     id="path72"
     style="fill:#000000;fill-opacity:1" />
  <path
     d="m 430,148.03125 h 18 l 4,2 v 20 l -1,1 h -22 l -2,-2 v -19 z"
     fill="#FEFEFE"
     id="path73"
     style="fill:#000000;fill-opacity:1" />
  <path
     d="m 495,148.03125 h 19 l 3,1 v 21 l -1,1 h -23 l -1,-5 v -14 l 1,-3 z"
     fill="#FEFEFE"
     id="path74"
     style="fill:#000000;fill-opacity:1" />
  <path
     d="m 369,148.03125 h 16 l 3,1 v 22 h -24 l -1,-4 v -16 l 1,-2 z"
     fill="#FEFEFE"
     id="path75"
     style="fill:#000000;fill-opacity:1" />
  <path
     d="m 759,160.03125 h 14 l 12,4 11,6 8,8 14,22 24,38 13,21 12,18 7,8 3,1 19,1 -1,3 h -17 l -7,-3 -7,-8 -11,-17 -15,-24 -11,-17 -16,-26 -12,-17 -10,-8 -8,-3 -6,-1 -19,-1 v -1 l 11,-1 1,-1 -9,-1 z"
     fill="#FEFEFE"
     id="path76"
     style="fill:#000000;fill-opacity:1" />
  <path
     d="m 431,96.03125 h 20 l 2,2 v 17 l -1,1 -22,1 -2,-1 -1,-3 v -15 z"
     fill="#FEFEFE"
     id="path77"
     style="fill:#000000;fill-opacity:1" />
  <path
     d="m 168,97.03125 h 24 l 1,1 v 17 l -1,1 -7,1 h -16 l -2,-5 v -13 z"
     fill="#FEFEFE"
     id="path78"
     style="fill:#000000;fill-opacity:1" />
  <path
     d="m 502,96.03125 h 14 l 2,2 v 17 l -1,1 -23,1 -2,-7 1,-13 z"
     fill="#FEFEFE"
     id="path79"
     style="fill:#000000;fill-opacity:1" />
  <path
     d="m 372,96.03125 h 15 l 2,2 v 16 l -1,2 -22,1 -3,-5 v -14 l 1,-1 z"
     fill="#FEFEFE"
     id="path80"
     style="fill:#000000;fill-opacity:1" />
  <path
     d="m 135,-75.96875 h 2 v 35 l -1,1 h -7 l -6,-3 -1,-6 v -21 l 2,-4 z"
     fill="#FEFEFE"
     id="path81"
     style="fill:#000000;fill-opacity:1" />
  <path
     d="m 307,96.03125 h 9 l 7,1 v 19 l -11,1 h -11 l -3,-4 v -16 z"
     fill="#FEFEFE"
     id="path82"
     style="fill:#000000;fill-opacity:1" />
  <path
     d="m 233,97.03125 h 25 v 18 l -1,1 -21,1 -3,-2 z"
     fill="#FEFEFE"
     id="path83"
     style="fill:#000000;fill-opacity:1" />
  <path
     d="m 960,169.03125 2,1 -6,5 1,6 5,2 4,-4 -1,-7 -1,-3 21,1 4,5 5,10 -2,1 h -35 l -5,-3 -1,-2 v -7 l 4,-3 z"
     fill="#FEFEFE"
     id="path84"
     style="fill:#000000;fill-opacity:1" />
  <path
     d="m 381,208.03125 h 8 l 6,3 3,4 v 9 l -4,5 -7,3 -7,-1 -5,-5 -1,-3 v -8 l 5,-6 z"
     fill="#FEFEFE"
     id="path85"
     style="fill:#000000;fill-opacity:1" />
  <path
     d="m 351,279.03125 h 1 l 1,12 v 13 l -3,1 -40,-2 -2,-6 3,-2 8,-1 29,-1 2,-3 z"
     fill="#FEFEFE"
     id="path86"
     style="fill:#000000;fill-opacity:1" />
  <path
     d="m 314,334.03125 h 32 v 9 l -2,3 h -31 l -1,-3 1,-8 z"
     fill="#FEFEFE"
     id="path87"
     style="fill:#000000;fill-opacity:1" />
  <path
     d="m 322,279.03125 h 14 l 10,1 v 8 l -1,2 -4,1 h -27 l -1,-1 v -8 l 1,-2 z"
     fill="#FEFEFE"
     id="path88"
     style="fill:#000000;fill-opacity:1" />
  <path
     d="m 313,362.03125 h 33 v 9 l -1,2 h -32 z"
     fill="#FEFEFE"
     id="path89"
     style="fill:#000000;fill-opacity:1" />
  <path
     d="m 336,307.03125 10,1 v 8 l -1,2 -3,1 h -29 v -10 l 1,-1 z"
     fill="#FEFEFE"
     id="path90"
     style="fill:#000000;fill-opacity:1" />
  <path
     d="m 351,255.03125 2,4 v 18 l -43,-1 -2,-2 1,-4 1,-1 37,-1 2,-1 1,-8 z"
     fill="#FEFEFE"
     id="path91"
     style="fill:#000000;fill-opacity:1" />
  <path
     d="m 313,254.03125 h 33 v 9 l -1,1 h -32 z"
     fill="#FEFEFE"
     id="path92"
     style="fill:#000000;fill-opacity:1" />
  <path
     d="m 551,93.03125 8,6 7,8 v 13 l -2,1 h -8 l -4,-2 -1,-2 -1,-23 z"
     fill="#FEFEFE"
     id="path93"
     style="fill:#000000;fill-opacity:1" />
  <path
     d="m 286,-133.96875 h 2 v 29 h -14 v -17 l 7,-4 3,-7 z"
     fill="#FEFEFE"
     id="path94"
     style="fill:#000000;fill-opacity:1" />
  <path
     d="m 113,-67.96875 h 7 v 22 l -15,-3 -1,-1 v -17 z"
     fill="#FEFEFE"
     id="path95"
     style="fill:#000000;fill-opacity:1" />
  <path
     d="m 1487,-113.96875 8,1 9,11 9,14 2,9 -4,-1 -5,-5 -8,-10 -11,-15 z"
     fill="#FEFEFE"
     id="path96"
     style="fill:#000000;fill-opacity:1" />
  <path
     d="m 1459,-113.96875 10,2 10,14 7,10 1,8 h -4 l -5,-5 -12,-16 -6,-9 z"
     fill="#FEFEFE"
     id="path97"
     style="fill:#000000;fill-opacity:1" />
  <path
     d="m 520,37.03125 h 6 l 6,7 3,8 v 24 h -17 v -2 l 7,-4 4,-5 v -16 l -4,-8 -7,-2 z"
     fill="#FEFEFE"
     id="path98"
     style="fill:#000000;fill-opacity:1" />
  <path
     d="m 558,148.03125 h 7 l 1,1 v 15 l -2,7 h -8 l -1,-2 v -19 z"
     fill="#FEFEFE"
     id="path99"
     style="fill:#000000;fill-opacity:1" />
  <path
     d="m 331,37.03125 5,4 2,5 v 23 l -5,4 h -2 l -1,-5 z"
     fill="#FEFEFE"
     id="path100"
     style="fill:#000000;fill-opacity:1" />
  <path
     d="m 1355,-183.96875 7,1 2,3 v 6 l -4,4 h -7 l -3,-3 -1,-6 4,-4 z"
     fill="#FEFEFE"
     id="path101"
     style="fill:#000000;fill-opacity:1" />
  <path
     d="m 311,-127.96875 h 5 l 4,4 1,6 -4,3 -6,1 -4,-3 v -8 z"
     fill="#FEFEFE"
     id="path102"
     style="fill:#000000;fill-opacity:1" />
  <path
     d="m 1278,23.03125 h 11 v 35 h -11 v -1 l 8,-1 1,-30 -9,-1 v 26 h -2 l 1,-27 z"
     fill="#FEFEFE"
     id="path103"
     style="fill:#000000;fill-opacity:1" />
  <path
     d="m 1061,47.03125 5,2 v 5 l -19,1 -1,-1 v -6 h 13 z"
     fill="#FEFEFE"
     id="path104"
     style="fill:#000000;fill-opacity:1" />
  <path
     d="m 1018,-52.96875 h 6 l 4,5 -1,5 -3,2 -7,-1 -2,-3 1,-7 z"
     fill="#FEFEFE"
     id="path105"
     style="fill:#000000;fill-opacity:1" />
  <path
     d="m 1475,-52.96875 5,1 2,2 v 7 l -3,2 h -5 l -3,-3 v -6 z"
     fill="#FEFEFE"
     id="path106"
     style="fill:#000000;fill-opacity:1" />
  <path
     d="m 1154,225.03125 5,2 3,5 -3,3 -2,1 h -6 l -3,-3 1,-5 z"
     fill="#FEFEFE"
     id="path107"
     style="fill:#000000;fill-opacity:1" />
  <path
     d="m 908,94.03125 h 5 l 3,4 -1,5 -7,1 -3,-3 1,-5 z"
     fill="#FEFEFE"
     id="path108"
     style="fill:#000000;fill-opacity:1" />
  <path
     d="m 173,2.03125 5,1 1,2 v 6 l -3,2 -5,-1 -1,-1 v -6 z"
     fill="#FEFEFE"
     id="path109"
     style="fill:#000000;fill-opacity:1" />
  <path
     d="m 871,298.03125 h 41 l 6,1 v 1 h -41 l -6,-1 z"
     fill="#FEFEFE"
     id="path110"
     style="fill:#000000;fill-opacity:1" />
  <path
     d="m 738,91.03125 5,1 2,2 v 5 l -3,2 -5,-1 -1,-7 z"
     fill="#FEFEFE"
     id="path111"
     style="fill:#000000;fill-opacity:1" />
  <path
     d="m 1150,24.03125 h 10 v 1 l -9,1 -1,33 -2,-1 v -26 l 1,-7 z"
     fill="#FEFEFE"
     id="path112"
     style="fill:#000000;fill-opacity:1" />
  <path
     d="m 1256,27.03125 2,3 v 28 h -12 v -1 l 10,-1 z"
     fill="#FEFEFE"
     id="path113"
     style="fill:#000000;fill-opacity:1" />
  <path
     d="m 1181,25.03125 2,1 -1,29 h 13 l -1,2 -12,1 -2,-1 v -27 z"
     fill="#FEFEFE"
     id="path114"
     style="fill:#000000;fill-opacity:1" />
  <path
     d="m 1255,-124.96875 h 5 l 3,4 -1,4 -6,1 -2,-2 v -6 z"
     fill="#FEFEFE"
     id="path115"
     style="fill:#000000;fill-opacity:1" />
  <path
     d="m 989,233.03125 5,1 2,2 -1,5 -5,1 -3,-2 1,-6 z"
     fill="#FEFEFE"
     id="path116"
     style="fill:#000000;fill-opacity:1" />
  <path
     d="m 1251,-179.96875 h 3 l 4,10 3,2 v 2 l -6,1 -2,-6 -1,-4 z"
     fill="#FEFEFE"
     id="path117"
     style="fill:#000000;fill-opacity:1" />
  <path
     d="m 1034,166.03125 h 5 l 3,3 -1,4 -6,1 -2,-2 v -5 z"
     fill="#FEFEFE"
     id="path118"
     style="fill:#000000;fill-opacity:1" />
  <path
     d="m 339,229.03125 4,1 1,5 -2,2 -7,-1 1,-5 z"
     fill="#FEFEFE"
     id="path119"
     style="fill:#000000;fill-opacity:1" />
  <path
     d="m 1480,238.03125 5,1 1,5 -3,2 -5,-1 -1,-4 z"
     fill="#FEFEFE"
     id="path120"
     style="fill:#000000;fill-opacity:1" />
  <path
     d="m 1467,44.03125 5,1 1,1 v 5 l -4,2 -3,-3 z"
     fill="#FEFEFE"
     id="path121"
     style="fill:#000000;fill-opacity:1" />
  <path
     d="m 1039,20.03125 v 3 l -10,9 -4,-1 12,-10 z"
     fill="#FEFEFE"
     id="path122"
     style="fill:#000000;fill-opacity:1" />
  <path
     d="m 351,387.03125 1,2 -1,17 -3,3 1,-12 1,-9 z"
     fill="#FEFEFE"
     id="path123"
     style="fill:#000000;fill-opacity:1" />
  <path
     d="m 1015,81.03125 5,1 v 5 h -4 l -2,-5 z"
     fill="#FEFEFE"
     id="path124"
     style="fill:#000000;fill-opacity:1" />
  <path
     d="m 1697,102.03125 h 2 l 2,15 v 3 l -3,-4 z"
     fill="#FEFEFE"
     id="path125"
     style="fill:#000000;fill-opacity:1" />
  <path
     d="m 1252,22.03125 6,1 -1,3 -11,-1 v -2 z"
     fill="#FEFEFE"
     id="path126"
     style="fill:#000000;fill-opacity:1" />
  <path
     d="m 1215,23.03125 h 11 l 1,2 h -12 z"
     fill="#FEFEFE"
     id="path127"
     style="fill:#000000;fill-opacity:1" />
  <path
     d="m 1220,56.03125 h 6 l -3,2 h -10 v -1 z"
     fill="#FEFEFE"
     id="path128"
     style="fill:#000000;fill-opacity:1" />
  <path
     d="m 569,162.03125 4,3 h -3 v 4 h -2 z"
     fill="#FEFEFE"
     id="path129"
     style="fill:#000000;fill-opacity:1" />
  <path
     d="m 1183,24.03125 h 12 v 1 h -12 z"
     fill="#FEFEFE"
     id="path130"
     style="fill:#000000;fill-opacity:1" />
  <path
     d="m 1698,49.03125 h 1 v 8 h -1 z"
     fill="#FEFEFE"
     id="path131"
     style="fill:#000000;fill-opacity:1" />
  <path
     d="m 1244,22.03125 v 3 z"
     fill="#FEFEFE"
     id="path132"
     style="fill:#000000;fill-opacity:1" />
  <path
     d="M 1697,43.03125"
     fill="#FEFEFE"
     id="path133"
     style="fill:#000000;fill-opacity:1" />
  <path
     d="M 1705,123.03125"
     fill="#FEFEFE"
     id="path134"
     style="fill:#000000;fill-opacity:1" />
  <path
     d="M 1482,178.03125"
     fill="#FEFEFE"
     id="path135"
     style="fill:#000000;fill-opacity:1" />
  <path
     d="M 961,167.03125"
     fill="#FEFEFE"
     id="path136"
     style="fill:#000000;fill-opacity:1" />
  <path
     d="M 1707,126.03125"
     fill="#FEFEFE"
     id="path137"
     style="fill:#000000;fill-opacity:1" />
  <path
     d="M 1706,125.03125"
     fill="#FEFEFE"
     id="path138"
     style="fill:#000000;fill-opacity:1" />
  <path
     d="M 1704,122.03125"
     fill="#FEFEFE"
     id="path139"
     style="fill:#000000;fill-opacity:1" />
  <path
     d="M 1703,121.03125"
     fill="#FEFEFE"
     id="path140"
     style="fill:#000000;fill-opacity:1" />
  <path
     d="M 1702,120.03125"
     fill="#FEFEFE"
     id="path141"
     style="fill:#000000;fill-opacity:1" />
  <path
     d="M 1003,107.03125"
     fill="#FEFEFE"
     id="path142"
     style="fill:#000000;fill-opacity:1" />
  <path
     d="M 332,74.03125"
     fill="#FEFEFE"
     id="path143"
     style="fill:#000000;fill-opacity:1" />
  <path
     d="M 1276,22.03125"
     fill="#FEFEFE"
     id="path144"
     style="fill:#000000;fill-opacity:1" />
  <path
     d="M 1220,19.03125"
     fill="#FEFEFE"
     id="path145"
     style="fill:#000000;fill-opacity:1" />
  <path
     d="M 1041,19.03125"
     fill="#FEFEFE"
     id="path146"
     style="fill:#000000;fill-opacity:1" />
  <path
     d="M 1227,-117.96875"
     fill="#FEFEFE"
     id="path147"
     style="fill:#000000;fill-opacity:1" />
</svg>
