<?xml version="1.0" encoding="UTF-8" standalone="no"?>
<svg
   version="1.1"
   viewBox="0 0 2040 109.23486"
   width="1275"
   height="293.125"
   id="svg131"
   sodipodi:docname="2kNzRYsbLVmKv7W8aku8oA0c2g0.svg"
   inkscape:version="1.3.2 (091e20e, 2023-11-25, custom)"
   xmlns:inkscape="http://www.inkscape.org/namespaces/inkscape"
   xmlns:sodipodi="http://sodipodi.sourceforge.net/DTD/sodipodi-0.dtd"
   xmlns="http://www.w3.org/2000/svg"
   xmlns:svg="http://www.w3.org/2000/svg">
  <defs
     id="defs131" />
  <sodipodi:namedview
     id="namedview131"
     pagecolor="#ffffff"
     bordercolor="#666666"
     borderopacity="1.0"
     inkscape:showpageshadow="2"
     inkscape:pageopacity="0.0"
     inkscape:pagecheckerboard="0"
     inkscape:deskcolor="#d1d1d1"
     inkscape:zoom="2.1113767"
     inkscape:cx="737.19675"
     inkscape:cy="309.5137"
     inkscape:window-width="3840"
     inkscape:window-height="2107"
     inkscape:window-x="-8"
     inkscape:window-y="-8"
     inkscape:window-maximized="1"
     inkscape:current-layer="svg131" />
  <path
     d="m 1963,-56.389118 h 20 l 1,1 V 166.61088 l -2,2 h -72 l -10,-9 -26,-24 -15,-14 -7,-3 h -22 l -6,4 -5,5 -7,8 h -2 v 2 l -5,5 h -2 l -2,4 h -2 l -2,4 -5,5 -5,6 -3,-1 -12,-38 -16,-48.999998 -13,-40 -5,-17 -2,-1 h -66 l -13,1 -24,12 -15,8 h -2 l -1,-5 -10,4 -23,12 -14,7 -1,8 -68,34 -7,-8 -8,-11 -39,-52 -5,-6 -100,-1 2,-4 11,-12.000002 7,-8.0000016 9,-9.9999984 9,-10.999998 10,-11 5,-1 h 69 l 3,1 9,12 13,16.999997 2,1.9999994 62,1 h 388 l 11,-1.9999994 4,-5 3,-7.999998 5,-34.999999 z m 3,18 -2,4 1,7 2,1 h 7 l 3,-3 -1,-7 -3,-2 z m -558,4 -7,6 -6,9.999999 -2,5.999998 V 0.61087958 l 2,4.00000082 5,1 22,1.0000004 6,3.0000008 h 7 l 6,-4.0000012 4,-7.0000013 -1,-7.0000001 -6,-6.999999 -12,-2.999999 -11,-11.999999 -4,-4 z m 213,34.99999758 -133,1.00000002 -5,5.0000012 -1,5.0000012 10,13 13,16 10,13 9,11 5,6 10,-4 16,-8 33,-17 21,-11 23,-11 9,-5 1,-2 -7,-8.0000016 -4,-3.0000008 z m 159,2.00000042 -8,2.0000004 -3,4.0000008 1,9.0000008 20,62 2,4 7,1 8,-4 4,-3 h 58 l 11,9 12,11 11,8.999998 12,11 13,10 3,1 h 14 l 8,-2 3,-4 1,-3 V 20.610882 l -3,-5 -4,-2 -28,-1 -6,-9.000002 -3,-1 z m 7,88.000002 -5,3 v 5.999999 l 4,3.999999 6,-1 4,-4.999998 -3,-5 -2,-2 z m 181,25.999998 -4,3 v 7 l 4,3 7,-1 2,-3 -1,-6 -5,-3 z"
     fill="#FEFEFE"
     id="path1"
     style="fill:#000000;fill-opacity:1" />
  <path
     d="m 623,-39.389118 h 337 l 5,2 18,17.999999 16,13.9999974 107,1.0000004 -6,7.0000012 -8,7.0000016 -15,14.0000004 -12,11 -15,14 -11,10 H 581 l -1,-1 V -5.3891216 l 3,-4.9999994 16,-11.999997 14,-12 6,-4 z m -2,3 -7,4 -6,7 -2,3.999999 v 6.999999 l 8,10.9999988 9,11.000002 11,14.0000012 7,8 9,1 7,-3 5,-4 5,-7 V 7.6108808 l -9,-13.0000024 -9,-10.9999984 -10,-12.999998 -6,-5 -7,-2 z m 56,0 -8,4 -6,9 -1,7.999998 6,8.9999984 12,15.0000028 10,13.0000008 6,7 4,2 9,-1 7,-4 v -2 l 3,-1 5,-8 V 8.6108812 l -6,-9.00000204 -13,-15.99999916 -10,-12.999998 -5,-5 -8,-2 z m 114,0 -6,3 -6,7 -2,4 v 7.999998 l 7,9.9999988 22,28.0000032 8,7 h 7 l 8,-4 7,-8 2,-3 V 7.6108808 l -8,-11.000002 -11,-13.9999988 -8,-9.999998 -5,-6 -4,-2 z m -55,0 -7,3 -6,7 -3,7.999999 1,4.999999 10,12.99999916 13,16.00000284 7,9 7,6 h 7 l 8,-4 8,-9 1,-7 -3,-7.000002 -10,-13.0000014 -14,-17.9999966 -5,-6 -4,-2 z m 115,0 -7,3 -5,4 -4,7.999999 v 6.999999 l 12,15.9999996 13,16.0000024 8,10 5,3 9,-1 6,-4 5,-5 3,-4 V 7.6108808 l -6,-9.0000017 -12,-14.9999991 -10,-12.999998 -5,-5 z m 57,0 -7,3 -7,8 -2,9.999998 7,10.9999988 8,9.0000016 9,12.0000016 9,11 5,3 h 7 l 9,-5 6,-7 2,-4 -1,-7.0000012 -7,-11.000002 -10,-11.9999988 -10,-12.999998 -8,-7 z"
     fill="#FEFEFE"
     id="path2"
     style="fill:#000000;fill-opacity:1" />
  <path
     d="m 539,68.610882 h 386 l 4,5 -2,4 -78,77.999998 h -76 l -3,-9 -6,-4 h -22 l -4,1 -5,12 h -76 l -10,-10 -4,-2 H 538 l -5,2 -5,6 -3,-1 -6,-10 -1,-3 V 91.610882 l 6,-12 8,-7 z m 69,17 -2,2 v 49.999998 l 5,3 h 21 l 5,-2 V 88.610882 l -4,-3 z"
     fill="#FEFEFE"
     id="path3"
     style="fill:#000000;fill-opacity:1" />
  <path
     d="m 451,-132.38912 h 74 v 18 l 4,6 5,4 350,1 1,1 1,12.000002 3,5 4,1 41,1 16,14 2,4 H 451 Z"
     fill="#FEFEFE"
     id="path4"
     style="fill:#000000;fill-opacity:1" />
  <path
     d="m 1424,-96.389118 3,1 7,12 1,1 h 6 l 5,-5 4,-7 27,-1 h 222 l 6,10 3,3 7,-1 5,-7 3,-6 h 204 l 8,12 2,2 h 6 l 6,-9 3,-5 h 30 l 2,2 v 27 l -1,5 h -19 l -1,-9 h -47 l -5,6 -5,1 -546,-1 5,-6 8,-7 7,-6 1,-2 1,-9 z"
     fill="#FEFEFE"
     id="path5"
     style="fill:#000000;fill-opacity:1" />
  <path
     d="m 1300,-147.38912 4,2 v 12 l 73,1 v 42.000002 l -3,6 h -2 v 2 l -8,7 -11,10 h -102 l -7,-9 -5,-2 h -138 l -32,1 -2,5 -4,5 H 959 l -18,-18 -1,-4 1,-1 v -14.000002 l 1,-1 341,-1 6,-10 8,-17 1,-12 z m 53,17 -7,3 -5,5 -1,2 v 9 l 4,7 8,5.000002 h 6 l 9,-6.000002 3,-6 v -8 l -4,-6 -3,-3 z"
     fill="#FEFEFE"
     id="path6"
     style="fill:#000000;fill-opacity:1" />
  <path
     d="m 1918,-67.389118 h 40 v 9 l -5,34 -3,10.999998 -5,2.999999 -5,0.9999996 h -394 l -55,-0.9999996 -8,-9.999998 -12,-15.999999 -5,-6 -66,-1 h -28 l -22,-1 v -12 l 560,-1 z m -399,19 -3,3 1,7 3,2 h 6 l 3,-3 v -6 l -3,-3 z m 25,2 -2,2 v 24.999999 l 1,3.999999 2,1 h 160 l 14,-4.999999 49,-1 2,-3.999999 v -14 l -2,-5 -46,-1 -11,-1 -3,-1 z m 263,1 -6,4 -4,6 -1,6 3,7.999999 6,4.999999 7,1 8,-2 6,-6.999998 1,-2 v -8 l -6,-9 -4,-2 z m 120,0 -5,3 -4,5 -1,2 v 9 l 4,6.999999 4,2.999999 8,1 7,-2 5,-4.999998 2,-4 v -8 l -4,-7 -6,-4 z m -403,17 -7,2 v 8.999998 l 1,1 h 9 l 2,-2.999999 -1,-6.999999 z"
     fill="#FEFEFE"
     id="path7"
     style="fill:#000000;fill-opacity:1" />
  <path
     d="m 548,-56.389118 h 603 v 10 l -6,7 -8,7 -13,11.999999 -7,6.999999 -6,4.999999 h -106 l -6,-2 -31,-30.999997 -6,-3 -5,-1 v -3 -4 h -7 l -1,2 2,5 -14,1 H 800 l -24,-1 v -7 l -8,-1 1,8 -143,1 -9,2 -18,14 -17,13.999998 -7,4.9999986 V 57.610882 l -1,1 h -16 l -3,-5 -6,-17 -1,-5 z m 10,8 -2,1 v 7 l 6,2 3,-1 1,-7 -2,-2 z m 23,0 -4,1 -1,4 v 18 l 2,3.999999 5,-1.999999 16,-13 6,-5 1,-5 -2,-1 -10,-1 z m -23,65 -3,3 1,5 1,1 h 8 l 1,-1 -1,-7 -1,-1 z"
     fill="#FEFEFE"
     id="path8"
     style="fill:#000000;fill-opacity:1" />
  <path
     d="m 773,161.61088 h 363 l 3,1 -1,29 -11,9 -13,11 -13,10 -12,10 -14,11 -13,11 -14,11 -13,11 -11,8 -3,1 h -10 l -2,-2 -1,-9 8,-23 12,-27 -1,-4 -13,-12 -11,-9 -14,-12 -13,-11 -4,-1 -18,10 h -35 l -2,5 -3,5 -6,1 -135,-1 z m 15,5 -5,3 -1,2 v 6 l 4,4 4,1 h 104 l 5,-2 3,-4 -1,-5 -3,-4 -3,-1 z m 205,0 -2,3 1,6 3,2 6,-1 3,-3 -1,-5 -3,-2 z m 112,0 -7,6 -2,4 v 9 l 4,6 5,4 9,1 6,-3 6,-7 v -11 l -7,-8 -2,-1 z m -68,3 -7,6 -1,6 4,6 11,10 11,9 14,12 3,2 h 7 l 7,-6 v -8 l -7,-8 -11,-9 -14,-12 -9,-7 -2,-1 z m -9,83 -4,5 2,5 3,2 5,-1 2,-3 v -5 l -4,-3 z"
     fill="#FEFEFE"
     id="path9"
     style="fill:#000000;fill-opacity:1" />
  <path
     d="m 1777,7.6108808 h 136 l 3,3.0000012 3,5 v 2 l 31,1 2,3 v 96.999998 l -3,5 h -19 l -10,-8 -12,-11 -11,-8.999998 -11,-10 -8,-7 -6,-5 -3,-1 h -54 l -7,2 -10,6 -3,-1 -10,-30 -11,-36 1,-5.0000008 z m 145,62.0000012 -7,3 -5,6 -1,2 v 9 l 4,6 5,3.999999 9,0.999999 6,-2.999998 6,-7 1,-7 -4,-8 -6,-5 z"
     fill="#FEFEFE"
     id="path10"
     style="fill:#000000;fill-opacity:1" />
  <path
     d="m 1252,6.6108808 h 88 l -4,6.0000012 -9,9 -2,3 h -2 l -2,4 -13,15 -2,2 -120,1 -14,11 -4,1 1,73.999998 -3,8 -3,4 h -96 l -1,-1 v -5 l 2,-1 11,-1 2,-5 12,-9 13,-3 1,-32.999998 2,-6 52,-52 v -6 l -5,-5 -5,1 -9,7 -9,9 -2,3 h -2 l -2,4 -17,17 -8,7 -9,9 -1,2 -1,27.999998 -5,-4 v -1.999998 l -4,-2 -3,-5 -12,-1 -1,-1 v -24 l 3,-5 17,-16 7,-7 8,-7 16,-16 8,-7.0000012 z m -2,3.0000008 -5,4.0000004 -1,2 v 7 l 3,5 3,2 h 41 l 6,-4 1,-9 -3,-5 -3,-2.0000004 z m -58,3.0000004 -1,1 v 9 l 4,2 h 28 l 7,-1 1,-1 v -8 l -2,-2 z m -59,54 -7,3 -7,8 -2,4 v 9 l 3,7 5,5.999998 8,4 h 8 l 9,-4 5,-3.999999 4,-7.999999 v -9 l -4,-8 -8,-7 -3,-1 z m 10,44.999998 -6,4 -4,5 v 11 l 7,8 4,2 h 7 l 6,-3 4,-5 1,-2 v -11 l -4,-6 -4,-3 z"
     fill="#FEFEFE"
     id="path11"
     style="fill:#000000;fill-opacity:1" />
  <path
     d="m 1674,32.610882 13,1 5,13 13,40 15,42.999998 31,92 7,19 1,4 -5,5 -14,8 -6,2 h -5 l -4,-10 -10,-30 -12,-34 -12,-36 -16,-47 -7,-19.999998 -4,-5 -10,-3 -9,2 -18,8 -30,14 -5,3.999998 -4,8 v 7 l 6,20 14,41 16,47 10,29 7,20 -1,3 h -5 l -10,-30 -12,-35 -5,-15 -11,-32 -14,-41 -4,-12 -9,-25.999998 v -6 l 7,-4 h 4 l 2,5 5,-1 38,-19 v -4 l -2,-3 1,-2 23,-11 16,-8 z"
     fill="#FEFEFE"
     id="path12"
     style="fill:#000000;fill-opacity:1" />
  <path
     d="m 338,-110.38912 h 60 l 1,18.000002 4,2 v 89.99999716 l -4,3.00000084 1,66.000002 h -3 l -1,-21 -6,-8 -3,-2 h -33 l -7,3 -5,7 -1,6 -1,16 h -2 V 1.6108796 l -6,-2.00000044 V -88.389118 l 1,-2 5,-2 z"
     fill="#FEFEFE"
     id="path13"
     style="fill:#000000;fill-opacity:1" />
  <path
     d="m 466,-56.389118 h 77 l 1,1 1,93 5,13 3,6 v 2 h -78 l -4,-9 -5,-14 z"
     fill="#FEFEFE"
     id="path14"
     style="fill:#000000;fill-opacity:1" />
  <path
     d="m 995,65.610882 h 48 v 25 l -14,1 -1,45.999998 h 15 l 1,17 -1,1 H 856 l 1,-3 8,-7 71,-70.999998 2,-1 h 27 v 8 h 27 l 2,-1 z m -56,30 -8,3.999999 -4,4.999999 -2,5 v 8 l 5,8 6,4 4,1 h 63 l 9,-2 7,-6 2,-4 v -11 l -6,-7.999999 -7,-3.999999 z"
     fill="#FEFEFE"
     id="path15"
     style="fill:#000000;fill-opacity:1" />
  <path
     d="m 1336,42.610882 h 21 l 5,4 -1,5 -3,1 -2,4 -8,9 -7,11 -3,9 v 10 l 3,9.999998 10,18 8,13 10,18 9,20 9,23 1,7 -3,3 -15,5 -37,9 -2,-2 -2,-21 -5,-22 -7,-25 -10,-24 -7,-11 -9,-11 -4,-4 1,-12.999998 4,-25 3,-2 14,-1 8,-5 6,-7 7,-5 z m -34,30 -5,5 -1,7 4,6 3,2 h 6 l 7,-6 v -8 l -4,-5 -2,-1 z m 62,115.999998 -5,3 -4,5 1,6 5,6 h 8 l 7,-5 v -7 l -4,-6 -4,-2 z"
     fill="#FEFEFE"
     id="path16"
     style="fill:#000000;fill-opacity:1" />
  <path
     d="m 1329,34.610882 h 25 l 8,2 9,10 7,10 -1,5 -9,10 -7,14 -1,10 5,14.999998 11,19 9,15 11,21 11,30 3,9 -1,4 -43,12 -56,14 h -4 l 3,-15 -2,-16 -9,-34 -10,-30 -6,-15 -7,-10 -9,-8 -4,-3 1,-4.999998 4,-18 1,-27 28,-1 12,-1 8,-7 7,-8 z m 3,3 -7,3 -14,14 -3,1 -13,1 -6,2 -3,10 -4,27 -1,5.999998 7,8 8,9 8,14 6,14 8,26 6,26 3,23 2,4 9,-1 26,-6 21,-6 7,-5 1,-4 -4,-14 -13,-32 -12,-22 -18,-30 -3,-12.999998 1,-11 7,-12 11,-13 5,-6 -1,-4 -7,-8 -2,-1 z"
     fill="#FEFEFE"
     id="path17"
     style="fill:#000000;fill-opacity:1" />
  <path
     d="m 1562,84.610882 h 3 l 24,71.999998 22,65 14,41 5,14 -1,3 -24,5 h -6 l -5,-12 -3,-7 1,-5 3,-2 v -5 l -5,-3 -4,-1 -9,-25 -7,-19 -3,-11 5,-4 v -6 l -9,-2 -3,-5 -10,-29 -5,-14 1,-4 3,-1 1,-6 -2,-3 -7,-1 -3,-4 -4,-12 1,-4.999998 19,-10 z"
     fill="#FEFEFE"
     id="path18"
     style="fill:#000000;fill-opacity:1" />
  <path
     d="m 741,147.61088 h 24 l 2,2 v 53 l -4,-1 -1,-24 -4,-7 -9,-2 H 642 l -7,3 -3,4 -1,26 -77,1 -13,10 -8,4 h -11 l -1,-1 v -10 l 9,-14 1,-3 v -30 l 3,-8 3,-2 h 107 l 11,11 2,1 h 79 l 3,-10 z m -201,6 -2,2 v 7 l 4,2 h 5 l 2,-2 v -7 l -2,-2 z m 27,5 -7,1 -1,3 v 15 l 2,2 h 63 l 2,-2 1,-14 -2,-4 -37,-1 z"
     fill="#FEFEFE"
     id="path19"
     style="fill:#000000;fill-opacity:1" />
  <path
     d="m 1990,-86.389118 h 14 l 6,3 2,3 V 160.61088 l -5,5 h -17 z"
     fill="#FEFEFE"
     id="path20"
     style="fill:#000000;fill-opacity:1" />
  <path
     d="m 404,-114.38912 h 41 V 73.610882 h -20 l -2,-6 -7,-28 -1,-6 v -126 l -6,-2 -4,-1 -1,-5.000002 z m 29,66.000002 -2,1 v 6 l 3,3 h 5 l 2,-4 -1,-6 z m 0,67 -2,2 v 6 l 3,2 h 6 l 1,-6 -1,-3 z"
     fill="#FEFEFE"
     id="path21"
     style="fill:#000000;fill-opacity:1" />
  <path
     d="m 1112,-168.38912 3,1 1,33 -1,1 H 979 l -1,-4 v -28 l 1,-2 z"
     fill="#FEFEFE"
     id="path22"
     style="fill:#000000;fill-opacity:1" />
  <path
     d="m 1663,22.610882 h 69 l 5,13 14,43 20,61.999998 12,37 6,19 -1,7 -6,13 -3,-3 -12,-38 -10,-28 -13,-40 -12,-34.999998 -12,-37 -3,-7 h -53 l -16,8 -29,15 h -2 v 3 l 4,1 -1,4 -23,11 -9,5 h -3 l -3,-5 -4,1 -19,9 -19,10 -15,7 -1,-4 5,-4 23,-12 25,-13 -1,-6 14,-8 20,-10 h 2 l 2,5 5,-2 40,-20 z"
     fill="#FEFEFE"
     id="path23"
     style="fill:#000000;fill-opacity:1" />
  <path
     d="m 530,-122.38912 4,1 1,6 16,1 1,-7 h 16 l 1,6 14,1 v -7 l 50,-1 2,7 13,1 1,-7 13,-1 4,2 1,5 13,1 v -7 h 51 l 1,6 13,1 1,-7 h 17 l 2,6 h 12 l 1,-6 h 50 l 1,6 h 13 l 2,-6 h 16 l 3,6 h 12 l 4,-6 5,-1 h 20 l 25,1 v 13 H 536 l -6,-5 -1,-8 z"
     fill="#FEFEFE"
     id="path24"
     style="fill:#000000;fill-opacity:1" />
  <path
     d="m 1693,32.610882 h 20 l 4,9 47,140.999998 13,37 3,7 v 4 l -13,10 h -4 l -3,-7 -12,-36 -10,-29 -16,-47 -12,-33.999998 -12,-36 -4,-13 -1,-1 z"
     fill="#FEFEFE"
     id="path25"
     style="fill:#000000;fill-opacity:1" />
  <path
     d="m 1549,-40.389118 h 159 l 7,2 48,1 1,1 v 10 l -46,1 -10,3.999999 -5,1 h -154 z"
     fill="#FEFEFE"
     id="path26"
     style="fill:#000000;fill-opacity:1" />
  <path
     d="m 639,173.61088 h 116 l 2,5 v 24 l -5,3 -5,1 -2,-1 v -2 h -2 v 2 l -4,1 -5,-3 -2,3 h -5 l -3,-3 -3,3 -5,-1 v -2 h -2 v 2 l -5,1 -4,-3 -2,3 h -5 l -3,-3 -2,3 h -5 l -1,-2 -2,2 h -6 l -3,-3 -2,3 -5,-1 -1,-3 h -2 l -2,4 -5,-1 h -2 l -5,2 -5,-3 -2,2 -7,-1 -1,-1 v -29 z"
     fill="#FEFEFE"
     id="path27"
     style="fill:#000000;fill-opacity:1" />
  <path
     d="m 1493,6.6108808 h 134 l 6,2.0000004 v 4.0000008 l -27,14 -32,16 -17,9 -16,8 -9,4 -4,-2 -13,-16 -10,-13 -13,-16 -4,-5 V 7.6108808 Z m 35,6.0000012 -6,4 -4,5 -1,9 5,9 5,3 6,1 8,-3 5,-5 2,-5 -1,-8 -4,-6 -4,-3 -3,-1 z"
     fill="#FEFEFE"
     id="path28"
     style="fill:#000000;fill-opacity:1" />
  <path
     d="m 960,-122.38912 4,1 v 6 h 14 l 2,-6 h 49 l 1,5 2,1 11,1 v -6 l 1,-1 h 18 l 1,6 h 13 l 1,-6 h 50 v 6 h 14 l 1,-6 18,-1 -1,7 h 14 l 1,-6 h 50 v 6 l 15,1 -1,-8 h 11 l 9,1 v 7 l 13,-1 1,-7 h 16 l -2,6 -5,8 H 936 v -6 l 9,-1 2,-5 1,-1 z"
     fill="#FEFEFE"
     id="path29"
     style="fill:#000000;fill-opacity:1" />
  <path
     d="m 1349,-38.389118 h 28 l 2,2 -8,8 -9,10.999998 -13,13.9999988 -4,5.0000008 -2,1.0000004 h -215 l -6,2.0000004 -13,12.0000016 -35,35 -8,7 -3,3 -1,20 v 8 l -1,1 h -12 v -30 l 15,-14 13,-12 12,-11 8,-8 8,-7.0000008 7,-7.0000016 10,-7.0000012 h 191 l 6,-2.9999994 z"
     fill="#FEFEFE"
     id="path30"
     style="fill:#000000;fill-opacity:1" />
  <path
     d="m 37,-71.389118 h 70 l 1,49.999999 -1,1 H 37 l -1,-1 v -48.999999 z"
     fill="#FEFEFE"
     id="path31"
     style="fill:#000000;fill-opacity:1" />
  <path
     d="m 1146,166.61088 h 9 l 7,14 8,18 12,26 9,16 10,11 13,8 12,5 4,1 h 22 l 23,-5 70,-18 40,-10 26,-7 h 4 l -1,5 -64,16 -39,10 -11,4 -15,9 -10,7 -16,4 -7,1 h -22 l -16,-4 -12,-6 -10,-7 -7,-6 -9,-12 -8,-15 -12,-26 -8,-16 -2,-2 -1,-9 v -11 z"
     fill="#FEFEFE"
     id="path32"
     style="fill:#000000;fill-opacity:1" />
  <path
     d="m 1160,-56.389118 h 185 l 1,11 -2,6 -28,27.999997 -3,1.9999996 -134,1.0000004 h -53 l 2,-4 11,-9.999997 12,-12 7,-6 1,-5 v -10 z m 172,4 -4,4 v 5 l 4,4 7,-1 2,-3 -1,-7 -3,-2 z m -153,3 -6,3 -3,3 -1,3 v 17 l 4,6.999998 6,3 h 127 l 7,-2 4,-4.999999 1,-1.999999 v -18 l -4,-6 -2,-2 -4,-1 z m -34,26 -3,3.999999 1,6.999998 7,1 4,-1.999999 v -7.999999 l -3,-1.999999 z"
     fill="#FEFEFE"
     id="path33"
     style="fill:#000000;fill-opacity:1" />
  <path
     d="m 2018,-75.389118 12,1 5,2 1,2 v 32 l -6,16 -2,2.999999 -5,1 3,4.999999 -2,12.99999916 -1,1.00000042 1,7.00000122 2,3.0000012 v 8 l -3,2 v 3 l 4,4 1,10 -3,2 v 3 l 4,2 1,13 -3,2 -1,3 6,2 v 12 l -2,6 4,1 1,1 1,11 -3,2 1,3.999998 3,1 1,13 -4,1 1,4 5,2 -1,24 -6,7 -4,1 h -11 l -1,-4 V -11.389121 Z"
     fill="#FEFEFE"
     id="path34"
     style="fill:#000000;fill-opacity:1" />
  <path
     d="m 1527,102.61088 3,1 4,12 1,7 -4,2 -2,7 v 2 l 4,2 h 7 l 2,2 9,27 6,17 -1,4 -5,5 1,5 3,2 h 7 l 4,9 10,29 5,13 v 2 l -7,4 -1,4 5,5 h 7 l 3,5 5,15 -2,1 -18,-8 -5,-5 -5,-10 -12,-36 -12,-35 -18,-51 -4,-13 1,-6 7,-16 z"
     fill="#FEFEFE"
     id="path35"
     style="fill:#000000;fill-opacity:1" />
  <path
     d="m 1650,79.610882 h 8 l 5,3 5,13 16,46.999998 24,71 14,41 2,6 -5,1 -4,-8 -11,-32 -14,-40 -13,-35 -8,-23 -10,-27.999998 -4,-7 -2,-2 -7,1 -17,7 -24,10.999998 -5,4 v 9 l 13,36 10,29 14,39 14,40 2,7 v 4 l -6,2 -4,-8 -12,-36 -20,-59 -14,-41 -4,-12 v -10 l 5,-6 12,-5.999998 26,-12 z"
     fill="#FEFEFE"
     id="path36"
     style="fill:#000000;fill-opacity:1" />
  <path
     d="m 939,-174.38912 h 15 l 3,1 1,30 -1,13 -19,10 -5,1 -2,-6 -20,-1 3,-3 10,-5 h 2 l -3,-6 v -2 l -5,-1 -32,16 -11,3 -4,5 h -5 l -1,-5 -15,-1 1,-3 31,-16 42,-23 z m -3,15 -1,1 v 6 l 2,3 6,-1 2,-3 -1,-5 -1,-1 z"
     fill="#FEFEFE"
     id="path37"
     style="fill:#000000;fill-opacity:1" />
  <path
     d="m 1162,156.61088 3,3 16,33 13,28 9,15 9,8 12,6 10,3 h 19 l 25,-6 26,-7 48,-12 53,-14 7,-2 h 4 l 1,7 -9,3 -60,15 -49,13 -36,9 -11,2 h -22 l -10,-3 -11,-6 -10,-9 -6,-8 -12,-23 -12,-26 -10,-22 1,-5 z"
     fill="#FEFEFE"
     id="path38"
     style="fill:#000000;fill-opacity:1" />
  <path
     d="m 357,41.610882 h 25 l 6,2 3,5 2,25 v 10 l -6,20.999998 -1,1 -9,1 h -15 l -10,-1 -3,-8.999998 -4,-15 1,-33 4,-5 z m 10,8 -5,3 -3,4 v 8 l 5,5 2,1 h 8 l 6,-4 1,-9 -3,-5 -4,-3 z m -2,26 -6,5 -1,6 3,6 5,4 h 8 l 5,-4 2,-5 -1,-7 -5,-5 z"
     fill="#FEFEFE"
     id="path39"
     style="fill:#000000;fill-opacity:1" />
  <path
     d="m 1336,22.610882 h 21 l 80,1 5,5 21,28 13,17 2,5 h -11 l -5,-5 -9,-11 -14,-18 -4,-5 -9,-1 h -18 l -13,1 -9,6 -4,5 -4,-2 -10,-13 -5,-5 -2,-1 -30,-1 2,-4 z"
     fill="#FEFEFE"
     id="path40"
     style="fill:#000000;fill-opacity:1" />
  <path
     d="m 236,-64.389118 h 52 l 1,38 h -53 z"
     fill="#FEFEFE"
     id="path41"
     style="fill:#000000;fill-opacity:1" />
  <path
     d="m 299,88.610882 h 33 l 3,7 1,6.999998 H 142 l -1,-2.999999 1,-9.999999 h 12 l 1,9 8,0.999999 v -8.999999 l 1,-1 h 13 l 1,9 h 7 l 1,-9 h 14 l 1,9 h 7 l 1,-9 h 12 l 1,1 v 8.999999 l 8,-0.999999 1,-9 h 13 l 1,9 h 8 v -8 l 1,-1 h 12 l 1,9 8,0.999999 v -9.999999 h 14 l 1,9 h 7 l 1,-9 z"
     fill="#FEFEFE"
     id="path42"
     style="fill:#000000;fill-opacity:1" />
  <path
     d="m 175,-72.389118 3,1 v 50.999999 l -1,1 h -34 v -51.999999 z"
     fill="#FEFEFE"
     id="path43"
     style="fill:#000000;fill-opacity:1" />
  <path
     d="m 334,115.61088 h 5 l 3,4 2,7 -1,1 h -45 l -1,-9 -7,2 -2,7 h -12 l -1,-1 -1,-7 h -6 l -2,8 h -12 l -1,-1 -1,-7 h -6 l -1,7 -1,1 h -13 l -2,-8 h -6 l -1,7 -1,1 h -12 l -2,-8 h -6 l -1,7 -1,1 h -13 l -1,-7 -1,-1 h -7 v 7 l -1,1 h -13 l -2,-8 h -5 l -1,1 -1,7 h -11 l -1,-1 -1,-10 z"
     fill="#FEFEFE"
     id="path44"
     style="fill:#000000;fill-opacity:1" />
  <path
     d="m 1,-76.389118 17,1 13,3 1,3 -1,49.999999 -8,3.999999 -16,2 H 0 v -15.999998 l 9,-3 h 2 l -1,-4 -10,-5 v -7 l 10,-6 1,-4 -11,-3 v -13 z"
     fill="#FEFEFE"
     id="path45"
     style="fill:#000000;fill-opacity:1" />
  <path
     d="m 1411,235.61088 h 4 l -1,6 -4,8 -6,3 -53,14 -20,5 h -7 l -10,-3 h -7 l -21,7 -1,-2 17,-10 10,-4 87,-21 z"
     fill="#FEFEFE"
     id="path46"
     style="fill:#000000;fill-opacity:1" />
  <path
     d="m 187,-77.389118 h 16 l 3,3 2,4 v 49.999999 l -3,6.999999 h -18 l -4,-4 v -55.999998 z"
     fill="#FEFEFE"
     id="path47"
     style="fill:#000000;fill-opacity:1" />
  <path
     d="m 1034,95.610882 h 41 l 1,1 v 34.999998 l -1,1 h -41 l -1,-34.999998 z"
     fill="#FEFEFE"
     id="path48"
     style="fill:#000000;fill-opacity:1" />
  <path
     d="m 451,-56.389118 h 10 l 1,16 v 74 l 4,14 4,10 -2,4 -16,11 -2,-1 v -123 z"
     fill="#FEFEFE"
     id="path49"
     style="fill:#000000;fill-opacity:1" />
  <path
     d="m 1073,-72.389118 h 158 l 12,1 3,5 -1,3 h -177 l 1,-5 z"
     fill="#FEFEFE"
     id="path50"
     style="fill:#000000;fill-opacity:1" />
  <path
     d="m 118,-77.389118 h 14 l 5,3 v 56.999998 l -4,4 h -17 l -2,-1 v -60.999998 z"
     fill="#FEFEFE"
     id="path51"
     style="fill:#000000;fill-opacity:1" />
  <path
     d="m 320,-67.389118 h 6 l 1,1 v 42 l -1,1 h -18 l -14,-1 v -42 z"
     fill="#FEFEFE"
     id="path52"
     style="fill:#000000;fill-opacity:1" />
  <path
     d="m 1190,-46.389118 117,1 5,3 1,4 v 16.999999 l -3,2 -109,1 -1,-3 3,-2.999999 103,-1 1,-1 v -12 l -1,-1 -105,-1 -2,-3 h -12 l -5,2 -2,3 v 11 l 5,8.999999 h -6 l -5,-4.999999 -1,-2 v -13 l 5,-6 2,-1 z"
     fill="#FEFEFE"
     id="path53"
     style="fill:#000000;fill-opacity:1" />
  <path
     d="m 106,90.610882 h 27 l 1,7 1,1 v 20.999998 l -2,8 h -21 l -9,-2 -5,-2 V 95.610882 l 1,-2 z"
     fill="#FEFEFE"
     id="path54"
     style="fill:#000000;fill-opacity:1" />
  <path
     d="m 338,84.610882 3,1 4,13 3,9.999998 1,2 12,1 h 21 l 7,-2 4,-9.999999 3,-11.999999 2,-3 3,1 v 55.999998 l -1,2 -4,-1 v -12 l -44,-1 -4,-6 -8,-25.999998 -2,-7 z"
     fill="#FEFEFE"
     id="path55"
     style="fill:#000000;fill-opacity:1" />
  <path
     d="m 970,180.61088 h 5 l 10,9 11,9 15,13 11,9 v 6 l -3,6 -2,6 -5,-3 -11,-10 -11,-9 -11,-10 -14,-11 -8,-6 3,-3 z"
     fill="#FEFEFE"
     id="path56"
     style="fill:#000000;fill-opacity:1" />
  <path
     d="m 141,105.61088 196,1 2,3 v 3 H 141 Z"
     fill="#FEFEFE"
     id="path57"
     style="fill:#000000;fill-opacity:1" />
  <path
     d="m 455,-184.38912 h 20 v 35 l 1,3 4,1 18,1 4,3 -1,3 h -46 l -1,-1 v -44 z"
     fill="#FEFEFE"
     id="path58"
     style="fill:#000000;fill-opacity:1" />
  <path
     d="m 1050,137.61088 h 10 l 2,7 1,3 h 93 l 3,1 -2,5 -3,3 h -105 v -18 z"
     fill="#FEFEFE"
     id="path59"
     style="fill:#000000;fill-opacity:1" />
  <path
     d="m 610,90.610882 h 21 l 1,2 v 41.999998 l -1,1 h -20 l -1,-1 z"
     fill="#FEFEFE"
     id="path60"
     style="fill:#000000;fill-opacity:1" />
  <path
     d="m 1307,-169.38912 h 70 v 13 l -1,1 h -67 l -2,-1 z"
     fill="#FEFEFE"
     id="path61"
     style="fill:#000000;fill-opacity:1" />
  <path
     d="m 1308,-151.38912 69,1 1,8 4,2 v 3 h -74 l -1,-13 z"
     fill="#FEFEFE"
     id="path62"
     style="fill:#000000;fill-opacity:1" />
  <path
     d="m 1257,107.61088 5,1 10,8 5,6 -3,1 -5,-1 -68,-1 -1,-3 1,-9 52,-1 z"
     fill="#FEFEFE"
     id="path63"
     style="fill:#000000;fill-opacity:1" />
  <path
     d="m 1674,156.61088 3,1 5,13 -1,2 -38,11 -10,3 h -5 l -4,-10 v -3 l 36,-12 z"
     fill="#FEFEFE"
     id="path64"
     style="fill:#000000;fill-opacity:1" />
  <path
     d="m 791,-31.389118 h 7 l 6,4 9,9.999998 10,12.9999988 9,13.0000024 v 7.0000008 l -5,6 -4,3 -7,1 -6,-5 L 801,8.6108812 791,-4.3891212 782,-15.38912 v -5.999999 l 4,-5.999999 z m 2,4 -5,5 v 4.999998 l 9,9.999999 8,11.000001 10,13.000002 4,3 5,-2 3,-3 -1,-5.0000004 -12,-15.0000032 -10,-12.9999974 -8,-8.999999 z"
     fill="#FEFEFE"
     id="path65"
     style="fill:#000000;fill-opacity:1" />
  <path
     d="m 907,-31.389118 h 7 l 6,4 10,11.999998 11,13.9999991 6,9.0000017 1,6.0000012 -4,6 -6,5 h -8 l -9,-10 -13,-17.0000033 -8,-9.9999997 -2,-3.999999 1,-6.999998 6,-7 z m 2,4 -6,5 v 4.999998 l 7,6.999999 13,17.0000018 9,12.0000012 5,1 5,-4 1,-3 -8,-11.0000024 -10,-13.0000006 -11,-13.999997 z"
     fill="#FEFEFE"
     id="path66"
     style="fill:#000000;fill-opacity:1" />
  <path
     d="m 622,-31.389118 8,1 5,5 8,8.999998 7,8.999999 10,13.0000014 2,4.0000012 -1,6.0000004 -6,7 -7,3 -5,-2 -9,-10 -9,-12.0000024 -10,-12.0000006 -3,-5.999999 1,-6.999998 4,-5 z m 1,4 -6,5 1,5.999998 12,13.9999987 12,16.0000033 5,6 5,-1 4,-4 -1,-5.0000004 -11,-14.0000028 -8,-10.9999988 -9,-9.999998 z"
     fill="#FEFEFE"
     id="path67"
     style="fill:#000000;fill-opacity:1" />
  <path
     d="m 850,-31.389118 h 7 l 7,5 11,13.999997 12,15.000001 4,8.000002 -1,5 -6,7 -6,3 -6,-2 -9,-10 -9,-12.0000024 -10,-12.0000006 -3,-4.999999 1,-8.999998 z m 2,4 -6,4 v 4.999999 l 13,15.9999977 11,15.0000033 2,3 h 2 l 1,3 5,1 5,-4 v -5 l -14,-18.000003 -11,-13.999998 -4,-4.999999 z"
     fill="#FEFEFE"
     id="path68"
     style="fill:#000000;fill-opacity:1" />
  <path
     d="m 1682,179.61088 4,2 3,9 v 3 l -36,10 -14,4 h -4 l -4,-12 2,-2 32,-9 z"
     fill="#FEFEFE"
     id="path69"
     style="fill:#000000;fill-opacity:1" />
  <path
     d="m 1665,135.61088 5,1 3,8 v 5 l -36,12 -14,5 -3,-1 -3,-8 1,-5 21,-7 z"
     fill="#FEFEFE"
     id="path70"
     style="fill:#000000;fill-opacity:1" />
  <path
     d="m 1252,52.610882 5,1 v 9 l -3,13 -6,11 -6,7 -10,5 h -6 l 1,-5 5,-8 3,-13 1,-19 z"
     fill="#FEFEFE"
     id="path71"
     style="fill:#000000;fill-opacity:1" />
  <path
     d="m 677,-31.389118 9,1 9,8.999999 11,13.999998 10,13.0000014 2,8.0000016 -3,5 -7,6 -5,1 -5,-3 -7,-8 -13,-17.0000033 -9,-10.9999987 -1,-2 v -6.999998 l 7,-8 z m 2,4 -6,5 1,5.999998 9,9.9999984 12,16.0000032 8,9.0000004 4,1 5,-4 1,-3 -6,-9.000002 -22,-27.999998 -4,-3 z"
     fill="#FEFEFE"
     id="path72"
     style="fill:#000000;fill-opacity:1" />
  <path
     d="m 736,-31.389118 h 6 l 6,4 8,8.999999 10,12.9999974 10,14.0000028 v 6.0000008 l -7,8 -6,3 -6,-2 -13,-16.0000012 -8,-10.0000021 -8,-10.9999987 -2,-5.999999 4,-7.999999 z m 1,4 -5,4 -1,4.999999 9,10.999998 13,16.0000022 7,9.0000008 2,2 5,-1 4,-4 -1,-5.0000004 -13,-16.0000032 -12,-15.9999964 -5,-5 z"
     fill="#FEFEFE"
     id="path73"
     style="fill:#000000;fill-opacity:1" />
  <path
     d="m 893,-103.38912 h 42 l 1,1 1,13.000002 -7,2 h -36 l -3,-1 -2,-5 v -9.000002 z"
     fill="#FEFEFE"
     id="path74"
     style="fill:#000000;fill-opacity:1" />
  <path
     d="m 215,-67.389118 14,1 1,1 v 41 l -15,1 -1,-1 v -42 z"
     fill="#FEFEFE"
     id="path75"
     style="fill:#000000;fill-opacity:1" />
  <path
     d="m 1120,-170.38912 h 13 l 3,4 v 32 l -4,5 h -11 l -1,-1 -1,-39 z"
     fill="#FEFEFE"
     id="path76"
     style="fill:#000000;fill-opacity:1" />
  <path
     d="m 1689,200.61088 4,1 3,10 -5,2 -45,11 -5,-1 -2,-4 v -5 l 40,-11 z"
     fill="#FEFEFE"
     id="path77"
     style="fill:#000000;fill-opacity:1" />
  <path
     d="m 1659,116.61088 h 4 l 3,8 v 3 l -40,15 -11,4 -3,-4 -1,-7 34,-13 z"
     fill="#FEFEFE"
     id="path78"
     style="fill:#000000;fill-opacity:1" />
  <path
     d="m 1202,-35.389118 h 102 l 1,5 -1,1 h -102 l -1,-5 z"
     fill="#FEFEFE"
     id="path79"
     style="fill:#000000;fill-opacity:1" />
  <path
     d="m 1134,69.610882 h 9 l 9,6 3,6 v 11 l -5,6.999999 -7,3.999999 h -10 l -6,-3.999999 -5,-5.999999 v -6 l 2,-1 1,-3 6,-4 5,-3 7,1 8,7 -1,4 -3,3 -7,1 4,-5 -1,-5 -1,-1 h -7 l -3,1 -1,3 3,5 6,4 5,1 5,-4 2,-7 -4,-6 -5,-4 -7,-1 -8,5 -7,9 -1,-3 4,-8 8,-6 z"
     fill="#FEFEFE"
     id="path80"
     style="fill:#000000;fill-opacity:1" />
  <path
     d="m 1654,98.610882 3,0.999999 2,4.999999 v 5 l -21,8 -27,11 h -4 l -2,-6 v -4 l 39,-16 z"
     fill="#FEFEFE"
     id="path81"
     style="fill:#000000;fill-opacity:1" />
  <path
     d="m 938,100.61088 h 70 l 6,4 3,6 v 6 l -4,6 -4,3 -3,1 h -66 l -6,-3 -4,-5 -1,-9 7,-8 z m 4,3 -6,4 -2,4 1,7 4,5 5,1 h 62 l 5,-5 1,-2 v -8 l -5,-5 -3,-1 z"
     fill="#FEFEFE"
     id="path82"
     style="fill:#000000;fill-opacity:1" />
  <path
     d="m 1153,22.610882 4,1 -2,4 -52,52 -1,3 -1,32.999998 h -7 l 2,-12 1,-24.999998 7,-8 4,-5 h 2 l 2,-4 6,-5 33,-33 z"
     fill="#FEFEFE"
     id="path83"
     style="fill:#000000;fill-opacity:1" />
  <path
     d="m 789,171.61088 h 74 l 33,1 1,4 -2,1 H 788 l -1,-4 z"
     fill="#FEFEFE"
     id="path84"
     style="fill:#000000;fill-opacity:1" />
  <path
     d="m 69,96.610882 h 23 l 1,1 v 20.999998 l -1,1 H 69 L 68,97.610882 Z"
     fill="#FEFEFE"
     id="path85"
     style="fill:#000000;fill-opacity:1" />
  <path
     d="m 962,-171.38912 12,1 1,1 -1,40 h -12 z"
     fill="#FEFEFE"
     id="path86"
     style="fill:#000000;fill-opacity:1" />
  <path
     d="m 1382,-114.38912 h 33 l 4,4 2,5 v 4 l -38,1 -1,-1 -1,-11 z"
     fill="#FEFEFE"
     id="path87"
     style="fill:#000000;fill-opacity:1" />
  <path
     d="m 1038,175.61088 5,1 10,8 26,22 1,6 -2,2 -5,-1 -9,-7 -10,-9 -11,-9 -7,-6 v -5 z"
     fill="#FEFEFE"
     id="path88"
     style="fill:#000000;fill-opacity:1" />
  <path
     d="m 1407,-27.389118 5,1 11,10.999998 -2,4.999999 -2,3 -2,7.00000016 h -18 l -1,-1.00000006 v -9.0000001 l 4,-9.999998 z"
     fill="#FEFEFE"
     id="path89"
     style="fill:#000000;fill-opacity:1" />
  <path
     d="m 48,76.610882 5,1 -1,10 -4,7 -1,4.999999 v 18.999999 l 2,7 3,5 1,9 -5,1 -6,-3 V 79.610882 l 1,-2 z"
     fill="#FEFEFE"
     id="path90"
     style="fill:#000000;fill-opacity:1" />
  <path
     d="m 1695,219.61088 5,1 1,6 -18,5 -33,8 -4,-1 -1,-5 7,-3 z"
     fill="#FEFEFE"
     id="path91"
     style="fill:#000000;fill-opacity:1" />
  <path
     d="m 563,163.61088 h 36 v 10 l -1,1 h -35 z"
     fill="#FEFEFE"
     id="path92"
     style="fill:#000000;fill-opacity:1" />
  <path
     d="m 1699,233.61088 h 6 l 1,5 -9,3 -40,10 h -7 v -5 l 9,-3 z"
     fill="#FEFEFE"
     id="path93"
     style="fill:#000000;fill-opacity:1" />
  <path
     d="m 1174,91.610882 3,3 4,6.999998 14,7 2,2 v 9 l -5,5 h -16 l -2,-6 z m 13,16.999998 -4,2 -2,4 1,4 5,4 4,-1 3,-3 v -6 l -4,-4 z"
     fill="#FEFEFE"
     id="path94"
     style="fill:#000000;fill-opacity:1" />
  <path
     d="m 54,92.610882 h 6 l 3,4 v 23.999998 l -4,5 -5,-1 -2,-4 V 95.610882 Z"
     fill="#FEFEFE"
     id="path95"
     style="fill:#000000;fill-opacity:1" />
  <path
     d="m 1706,245.61088 4,1 -1,5 -38,9 -10,3 h -6 l -1,-4 16,-5 z"
     fill="#FEFEFE"
     id="path96"
     style="fill:#000000;fill-opacity:1" />
  <path
     d="m 1530,18.610882 7,1 5,6 -1,7 -5,4 -4,1 -5,-2 -3,-4 -1,-6 3,-5 z"
     fill="#FEFEFE"
     id="path97"
     style="fill:#000000;fill-opacity:1" />
  <path
     d="m 1920,76.610882 h 8 l 5,5 v 6 l -5,6 -6,1 -6,-4 -1,-2 v -7 z"
     fill="#FEFEFE"
     id="path98"
     style="fill:#000000;fill-opacity:1" />
  <path
     d="m 1809,-39.389118 h 6 l 5,4 1,2 v 6 l -5,5 -2,0.999999 h -6 l -4,-3.999999 -1,-2 v -7 l 4,-4 z"
     fill="#FEFEFE"
     id="path99"
     style="fill:#000000;fill-opacity:1" />
  <path
     d="m 1108,172.61088 h 7 l 4,4 1,2 v 6 l -5,5 -7,1 -5,-4 -1,-2 v -6 l 4,-5 z"
     fill="#FEFEFE"
     id="path100"
     style="fill:#000000;fill-opacity:1" />
  <path
     d="m 1275,13.610882 h 13 l 5,3 v 6 l -2,2 h -22 l -1,-1 v -8 z"
     fill="#FEFEFE"
     id="path101"
     style="fill:#000000;fill-opacity:1" />
  <path
     d="m 1352,-124.38912 8,1 3,4 1,6 -3,5 -2,2 h -8 l -4,-4 -1,-2 v -6 l 4,-5 z"
     fill="#FEFEFE"
     id="path102"
     style="fill:#000000;fill-opacity:1" />
  <path
     d="m 1930,-39.389118 7,1 3,3 1,8 -6,5.999999 h -7 l -5,-5.999999 v -6 l 4,-5 z"
     fill="#FEFEFE"
     id="path103"
     style="fill:#000000;fill-opacity:1" />
  <path
     d="m 1144,117.61088 h 7 l 5,4 1,7 -5,6 -6,1 -5,-3 -2,-3 v -7 z"
     fill="#FEFEFE"
     id="path104"
     style="fill:#000000;fill-opacity:1" />
  <path
     d="m 1711,255.61088 3,1 1,5 -53,10 h -5 l 2,-3 37,-9 z"
     fill="#FEFEFE"
     id="path105"
     style="fill:#000000;fill-opacity:1" />
  <path
     d="m 970,65.610882 h 19 l 1,3 v 8 h -20 l -1,-9 z"
     fill="#FEFEFE"
     id="path106"
     style="fill:#000000;fill-opacity:1" />
  <path
     d="m 1429,-11.389121 7,1 3,3.9999994 -1,7.00000118 -3,3.00000042 -6,1.0000004 -5,-4.00000082 -1,-6.00000118 3,-4.9999994 z"
     fill="#FEFEFE"
     id="path107"
     style="fill:#000000;fill-opacity:1" />
  <path
     d="m 604,163.61088 h 17 v 10 l -1,1 h -16 l -1,-1 v -9 z"
     fill="#FEFEFE"
     id="path108"
     style="fill:#000000;fill-opacity:1" />
  <path
     d="m 1189,-39.389118 h 7 l 2,2 v 13 l -1,2 -5,0.999999 -5,-1.999999 -1,-1 v -13 z"
     fill="#FEFEFE"
     id="path109"
     style="fill:#000000;fill-opacity:1" />
  <path
     d="m 1381,-126.38912 h 19 l 8,4 1,3 h -27 l -1,-1 z"
     fill="#FEFEFE"
     id="path110"
     style="fill:#000000;fill-opacity:1" />
  <path
     d="m 355,-121.38912 h 30 l 1,4 -1,1 h -30 l -1,-3 z"
     fill="#FEFEFE"
     id="path111"
     style="fill:#000000;fill-opacity:1" />
  <path
     d="m 1253,13.610882 h 9 l 1,1 v 9 l -1,1 h -11 l -2,-2 v -6 z"
     fill="#FEFEFE"
     id="path112"
     style="fill:#000000;fill-opacity:1" />
  <path
     d="m 931,64.610882 h 33 v 4 h -33 z"
     fill="#FEFEFE"
     id="path113"
     style="fill:#000000;fill-opacity:1" />
  <path
     d="m 581,-42.389118 h 16 l -4,5 -10,8 h -2 z"
     fill="#FEFEFE"
     id="path114"
     style="fill:#000000;fill-opacity:1" />
  <path
     d="m 1651,89.610882 h 2 v 2 l -23,9.999998 -20,8 -2,-1 16,-8 20,-8.999998 z"
     fill="#FEFEFE"
     id="path115"
     style="fill:#000000;fill-opacity:1" />
  <path
     d="m 1079,101.61088 4,2 1,3 -1,18 -4,1 z"
     fill="#FEFEFE"
     id="path116"
     style="fill:#000000;fill-opacity:1" />
  <path
     d="m 367,80.610882 7,1 1,7 -4,3 -5,-2 -1,-7 z"
     fill="#FEFEFE"
     id="path117"
     style="fill:#000000;fill-opacity:1" />
  <path
     d="m 367,55.610882 7,1 1,6 -3,3 h -5 l -2,-2 v -6 z"
     fill="#FEFEFE"
     id="path118"
     style="fill:#000000;fill-opacity:1" />
  <path
     d="m 1197,16.610882 h 29 l -1,3 h -29 z"
     fill="#FEFEFE"
     id="path119"
     style="fill:#000000;fill-opacity:1" />
  <path
     d="m 1433,-97.389118 h 11 l 1,3 -3,3 -6,1 -4,-4 z"
     fill="#FEFEFE"
     id="path120"
     style="fill:#000000;fill-opacity:1" />
  <path
     d="m 1933,-96.389118 h 14 l -3,5 h -7 l -4,-3 z"
     fill="#FEFEFE"
     id="path121"
     style="fill:#000000;fill-opacity:1" />
  <path
     d="m 1714,-97.389118 3,1 -1,4 -2,1 h -7 l -3,-3 v -2 z"
     fill="#FEFEFE"
     id="path122"
     style="fill:#000000;fill-opacity:1" />
  <path
     d="m 1364,194.61088 5,1 1,5 -2,2 h -5 l -1,-5 z"
     fill="#FEFEFE"
     id="path123"
     style="fill:#000000;fill-opacity:1" />
  <path
     d="m 1304,78.610882 h 5 v 7 l -4,1 -3,-2 1,-5 z"
     fill="#FEFEFE"
     id="path124"
     style="fill:#000000;fill-opacity:1" />
  <path
     d="m 409,-67.389118 h 1 v 43 h -1 z"
     fill="#FEFEFE"
     id="path125"
     style="fill:#000000;fill-opacity:1" />
  <path
     d="m 1087,108.61088 3,1 1,9 -4,2 -1,-4 z"
     fill="#FEFEFE"
     id="path126"
     style="fill:#000000;fill-opacity:1" />
  <path
     d="m 1187,111.61088 h 4 v 7 l -4,1 -1,-1 v -6 z"
     fill="#FEFEFE"
     id="path127"
     style="fill:#000000;fill-opacity:1" />
  <path
     d="m 1557,188.61088 3,1 1,4 -5,1 -1,-3 z"
     fill="#FEFEFE"
     id="path128"
     style="fill:#000000;fill-opacity:1" />
  <path
     d="m 1581,254.61088 4,4 -1,1 h -6 v -3 z"
     fill="#FEFEFE"
     id="path129"
     style="fill:#000000;fill-opacity:1" />
  <path
     d="m 1535,126.61088 h 3 l 1,5 h -5 z"
     fill="#FEFEFE"
     id="path130"
     style="fill:#000000;fill-opacity:1" />
  <path
     d="m 1138,84.610882 2,1 v 2 h -2 z"
     fill="#FEFEFE"
     id="path131"
     style="fill:#000000;fill-opacity:1" />
</svg>
